<?xml version="1.0" encoding="UTF-8"?>
<svg width="441px" height="99px" viewBox="0 0 441 99" version="1.1" xmlns="http://www.w3.org/2000/svg">
    <!-- Generator: Sketch 47.1 (45422) - http://www.bohemiancoding.com/sketch -->
    <title>Group 2</title>
    <desc>Created with Sketch.</desc>
    <defs></defs>
    <g id="Page-1" stroke="none" stroke-width="1" fill="none" fill-rule="evenodd">
        <g id="Artboard" transform="translate(-740.000000, -727.000000)">
            <g id="Group-3" transform="translate(740.000000, 254.000000)">
                <g id="Group-2" transform="translate(0.000000, 473.000000)">
                    <rect id="Rectangle" fill="#280911" x="0" y="0" width="441" height="99" rx="8"></rect>
                    <g id="Group" transform="translate(35.000000, 30.000000)">
                        <path d="M19.8762448,0 C8.90086748,0 0,8.89964718 0,19.8786854 C0,28.6611838 5.69513964,36.1111147 13.5941409,38.7396406 C14.5886853,38.9226856 14.9511144,38.3088748 14.9511144,37.7817052 C14.9511144,37.3094492 14.9340302,36.0598621 14.9242678,34.4014745 C9.39508893,35.6022496 8.22848223,31.7363395 8.22848223,31.7363395 C7.32424,29.4397351 6.02095971,28.8283649 6.02095971,28.8283649 C4.21613616,27.595862 6.1576333,27.620268 6.1576333,27.620268 C8.15282364,27.7606024 9.20228155,29.6691515 9.20228155,29.6691515 C10.9753773,32.7064779 13.8552851,31.8290823 14.9877234,31.3202172 C15.1683278,30.0364618 15.682074,29.1602864 16.2495135,28.6636244 C11.8356887,28.1620811 7.19488821,26.4561018 7.19488821,18.8389899 C7.19488821,16.6692966 7.96977865,14.8937603 9.24133115,13.505059 C9.03632076,13.0022954 8.35417312,10.9802585 9.43657913,8.24434613 C9.43657913,8.24434613 11.1047291,7.70985477 14.9023024,10.282247 C16.487472,9.8404984 18.18857,9.62084442 19.8786854,9.61230232 C21.5675804,9.62084442 23.2674582,9.8404984 24.8550684,10.282247 C28.6502011,7.70985477 30.3159104,8.24434613 30.3159104,8.24434613 C31.400757,10.9802585 30.7186094,13.0022954 30.5148193,13.505059 C31.7888124,14.8937603 32.5576013,16.6692966 32.5576013,18.8389899 C32.5576013,26.4756266 27.909479,28.1559796 23.482231,28.6477605 C24.1948861,29.2615713 24.8306624,30.4745494 24.8306624,32.328185 C24.8306624,34.9859982 24.8062564,37.1300651 24.8062564,37.7817052 C24.8062564,38.313756 25.1650246,38.932448 26.1729923,38.7384203 C34.065892,36.1037929 39.7561505,28.6587432 39.7561505,19.8786854 C39.7561505,8.89964718 30.855283,0 19.8762448,0"
                              id="Fill-50" fill="#FFFFFE"></path>
                        <text id="Continue-with-Github" font-family="ProximaNova-Black, Proxima Nova" font-size="30" font-weight="700" fill="#FFE3B4">
                            <tspan x="69.27" y="29">Continue with Github</tspan>
                        </text>
                    </g>
                </g>
            </g>
        </g>
    </g>
</svg>