<?xml version="1.0" encoding="UTF-8"?>
<svg width="271px" height="395px" viewBox="0 0 271 395" version="1.1" xmlns="http://www.w3.org/2000/svg" xmlns:xlink="http://www.w3.org/1999/xlink">
    <!-- Generator: Sketch 47.1 (45422) - http://www.bohemiancoding.com/sketch -->
    <title>Page 1</title>
    <desc>Created with Sketch.</desc>
    <defs>
        <polygon id="path-1" points="270.939933 313.137529 270.939933 0.483279301 0.000131395177 0.483279301 0.000131395177 313.137529"></polygon>
        <polygon id="path-3" points="0.36904 61.6 32.79164 61.6 32.79164 0.11256 0.36904 0.11256"></polygon>
    </defs>
    <g id="Page-1" stroke="none" stroke-width="1" fill="none" fill-rule="evenodd">
        <g id="Artboard" transform="translate(-825.000000, -254.000000)">
            <g id="Group-3" transform="translate(740.000000, 254.000000)">
                <g id="Page-1" transform="translate(85.000000, 0.000000)">
                    <g id="Group-4">
                        <g id="Group-75" transform="translate(2.000000, 1.000000)">
                            <path d="M265.94017,158.041414 C265.94017,231.21288 206.483044,290.530203 133.139123,290.530203 C59.795201,290.530203 0.338075393,231.21288 0.338075393,158.041414 C0.338075393,84.8699475 59.795201,25.5526247 133.139123,25.5526247 C206.483044,25.5526247 265.94017,84.8699475 265.94017,158.041414"
                                  id="Fill-1" fill="#280911"></path>
                            <polygon id="Fill-3" fill="#FFFFFF"
                                     points="142.924463 174.77684 135.934934 216.615405 132.006819 230.198992 109.374725 238.929306 88.4061382 233.350831 88.4061382 216.615405 90.2094366 187.80258 91.2019497 171.987602 93.9138869 173.173028 99.7431539 177.454508 103.084149 179.909037 106.578913 183.144553 120.320327 183.618723 121.955876 181.749934"></polygon>
                            <path d="M49.264777,59.0234767 C49.264777,59.0234767 49.264777,26.9472435 78.6207979,8.81719865 C107.976819,-9.31284619 138.730746,8.81719865 138.730746,8.81719865 C138.730746,8.81719865 163.893049,24.1580058 166.688861,47.866526 C169.484672,71.5750462 168.086766,71.5750462 168.086766,71.5750462 L176.474201,72.969665 C176.474201,72.969665 184.861636,79.9427592 183.46373,88.3104722 C182.065824,96.6781852 175.076295,100.862042 175.076295,100.862042 L168.086766,102.256661 L168.086766,121.781324 C168.086766,121.781324 165.290955,138.51675 149.913992,148.279082 L151.311897,152.462939 L161.097238,160.830652 L142.924463,171.987602 L128.945405,178.960696 L123.353782,183.144553 L113.568442,183.144553 L107.976819,181.749934 L96.7935728,173.382221 L87.0082325,171.987602 L78.6207979,171.987602 C78.6207979,171.987602 54.8564,159.436033 54.8564,142.700607 L54.8564,79.9427592 L49.264777,59.0234767 Z"
                                  id="Fill-5" fill="#FFE3B4"></path>
                            <polygon id="Fill-7" fill="#E26058"
                                     points="102.385196 191.512266 102.59628 192.072903 106.578913 202.669217 103.783102 237.534687 109.374725 238.929306 122.221479 233.840342 119.160065 204.063835 123.353782 191.512266 119.160065 183.144553 107.976819 183.144553"></polygon>
                            <path d="M39.1218524,250.783566 L36.6839047,264.032445 C36.6839047,264.032445 28.2964702,293.319441 47.8671508,300.292535 C47.8671508,300.292535 59.0503969,303.081773 75.825266,296.108678 C92.6001351,289.135584 98.7411351,285.856835 98.7411351,285.856835 L72.7946063,274.122513 L73.0294545,269.610921 L74.4273602,266.821683 L39.1218524,250.783566 Z"
                                  id="Fill-9" fill="#8E674A"></path>
                            <path d="M95.395667,171.987602 L112.170536,171.987602 L124.751688,165.014508 L148.839002,150.274782 C148.839002,150.274782 152.709803,160.830652 159.699332,159.436033 L144.88852,171.987602 L130.912259,178.277333 L120.316133,183.622907 L106.578913,183.144553 L95.395667,171.987602 Z"
                                  id="Fill-11" fill="#DCA486"></path>
                            <path d="M166.688861,71.5750462 L165.296547,71.7298489 C165.313321,66.5223422 165.386013,55.0836785 165.692154,51.3712031 C166.093353,46.5081673 160.496138,33.132378 160.496138,33.132378 C150.109698,11.4237413 123.353782,3.28056188 123.353782,3.28056188 C148.476945,18.9769969 150.085934,51.005813 149.308698,66.109535 C149.087829,70.3951987 145.802751,73.8901135 141.526557,74.3642839 L124.751688,71.5750462 L107.976819,78.5481404 L107.976819,88.0594408 C107.976819,93.5891045 112.471086,98.072804 118.013782,98.072804 L126.568965,98.072804 C137.917164,98.072804 147.11818,107.252185 147.11818,118.573701 L147.11818,118.575096 C147.11818,129.764122 143.324264,140.635176 136.274625,149.337598 C130.92484,155.941118 123.457227,163.629652 113.568442,170.592983 L149.913992,148.141015 C149.913992,148.141015 148.516086,146.884463 157.602473,140.301862 C166.688861,133.719261 166.688861,112.018992 166.688861,112.018992 L166.688861,100.862042 L170.675688,101.094943 C170.675688,101.094943 180.667918,99.4674229 180.667918,85.5212345 C180.667918,71.5750462 166.688861,71.5750462 166.688861,71.5750462"
                                  id="Fill-13" fill="#DCA486"></path>
                            <path d="M53.4584942,72.969665 C53.4584942,72.969665 74.4270806,68.7858085 85.6103267,78.5481404 L81.4166094,92.4943287 L71.6312691,86.9158534 L64.6417403,85.5212345 L54.8564,88.3104722 L54.8564,79.9427592 L53.4584942,72.969665 Z"
                                  id="Fill-15" fill="#DCA486"></path>
                            <path d="M100.288337,152.462939 L89.1050911,152.462939 C87.1745832,152.462939 85.6103267,150.90236 85.6103267,148.976391 C85.6103267,147.050423 87.1745832,145.489844 89.1050911,145.489844 L100.288337,145.489844 C102.218845,145.489844 103.783102,147.050423 103.783102,148.976391 C103.783102,150.90236 102.218845,152.462939 100.288337,152.462939"
                                  id="Fill-17" fill="#DCA486"></path>
                            <path d="M84.2124209,112.018992 L105.87996,112.018992 C107.810468,112.018992 109.374725,113.579571 109.374725,115.505539 C109.374725,117.431508 107.810468,118.992087 105.87996,118.992087 L87.7071853,118.992087 C85.7766775,118.992087 84.2124209,117.431508 84.2124209,115.505539 L84.2124209,112.018992 Z"
                                  id="Fill-19" fill="#DCA486"></path>
                            <path d="M75.8249864,263.585749 L71.6312691,273.794359 C71.6312691,273.794359 43.6731539,276.583596 32.4899079,271.005121 L38.0815309,247.296601 L53.4584942,252.38417 L75.8249864,263.585749 Z"
                                  id="Fill-21" fill="#774C3F"></path>
                            <polygon id="Fill-23" fill="#B62C36"
                                     points="106.813062 203.822706 119.285177 203.822706 120.757172 220.991858 105.988298 213.693818"></polygon>
                            <polygon id="Fill-25" fill="#B62C36"
                                     points="121.955876 233.350831 104.705719 227.772356 102.385196 237.534687 109.374725 240.323925 120.823573 234.034194"></polygon>
                            <polygon id="Fill-27" fill="#B62C36"
                                     points="106.578913 188.723028 121.955876 195.696122 123.353782 191.512266 118.353473 183.622907 107.976819 183.144553"></polygon>
                            <path d="M102.385196,191.512266 L106.578913,202.669217 C106.578913,202.669217 96.7935728,206.853073 95.395667,215.220786 C93.9977613,223.588499 92.5998555,234.466526 92.5998555,234.466526 L84.2124209,232.219795 L92.5998555,194.301504 L95.395667,194.301504 L98.1914785,195.696122 L102.385196,191.512266 Z"
                                  id="Fill-29" fill="#C4D5D7"></path>
                            <path d="M130.343311,202.669217 L144.322369,195.696122 L144.322369,211.03693 L138.730746,227.772356 L131.741217,230.561593 C131.741217,230.561593 131.741217,219.404643 134.537028,213.826167 C137.33284,208.247692 130.343311,202.669217 130.343311,202.669217"
                                  id="Fill-31" fill="#C4D5D7"></path>
                            <polygon id="Fill-33" fill="#FDFDFD"
                                     points="156.91722 165.279346 154.876277 173.117104 152.709524 181.749795 145.719995 187.32827 144.322089 192.906745 142.924183 195.695983 135.628513 199.531185 133.572194 200.605041 123.870728 180.968808 142.142754 171.638808 150.053503 167.60836"></polygon>
                            <path d="M95.395667,184.539172 C92.9353529,190.075809 95.5214785,196.560786 98.1914785,201.274598 L90.2094366,187.80258 L91.2019497,171.987602 L93.9138869,173.173028 L99.7431539,177.454508 C99.281845,178.47258 98.7506408,179.448813 98.1914785,180.355315 C96.8355099,182.544867 96.1784942,182.795898 95.395667,184.539172"
                                  id="Fill-35" fill="#C4D5D7"></path>
                            <path d="M156.91722,165.279346 L154.876277,173.117104 L152.709524,181.749795 L145.719995,187.32827 L144.322089,192.906745 L142.924183,195.695983 L135.628513,199.531185 C134.984079,195.737822 135.473346,190.982171 137.33256,187.32827 C139.890728,182.321588 143.874759,181.638225 144.322089,177.565938 C144.589089,175.236925 143.511304,173.312351 142.142754,171.638808 L150.053503,167.60836 L156.91722,165.279346 Z"
                                  id="Fill-37" fill="#C4D5D7"></path>
                            <path d="M144.322369,199.879979 L155.427332,198.854934 L176.474201,195.696122 L177.872107,208.247692 L162.495143,211.03693 L161.097238,209.642311 L162.495143,204.063835 L163.329693,200.605181 C163.329693,200.605181 155.505615,195.696122 152.709803,201.274598 C149.913992,206.853073 146.138248,211.03693 146.138248,211.03693 L144.322369,199.879979 Z"
                                  id="Fill-39" fill="#C4D5D7"></path>
                            <polygon id="Fill-41" fill="#280911"
                                     points="151.311897 251.480876 165.588709 246.543925 163.893049 250.086257 165.290955 254.270113"></polygon>
                            <path d="M32.4899079,131.543656 L53.4584942,128.754418 L53.4584942,139.911369 C53.4584942,139.911369 55.2282429,151.737737 64.1287089,161.16536 C73.0291749,170.592983 77.921845,171.0811 77.921845,171.0811 L91.2019497,171.987602 L93.9977613,174.77684 L96.7935728,208.247692 L100.414149,236.808091 L84.2124209,233.350831 L81.4166094,238.929306 L52.0256408,253.777813 L49.264777,255.664732 L32.4899079,131.543656 Z"
                                  id="Fill-43" fill="#FFFFFF"></path>
                            <path d="M57.6522115,212.431548 C57.6522115,212.431548 70.2333634,197.090741 67.4375518,183.144553 C64.6417403,169.198365 35.8057403,156.597983 35.8057403,156.597983 L34.8971016,147.768652 C34.8971016,147.768652 42.6498869,136.99801 42.2752482,130.149037 L53.4584942,128.754418 L53.4584942,145.489844 L66.4366513,163.501347 L78.6864995,171.0811 L92.918578,172.829952 L100.98729,236.140069 L84.2124209,231.956212 L82.8145152,236.140069 L80.0187037,238.929306 L63.2438346,227.772356 L57.6522115,212.431548 Z"
                                  id="Fill-45" fill="#C4D5D7"></path>
                            <polygon id="Fill-47" fill="#280911" points="64.1284293 161.165639 70.2330838 167.804025 64.6414607 167.804025"></polygon>
                            <path d="M88.6580408,240.323925 L88.4064178,243.67101 L88.0709204,248.022221 L84.2127005,259.848589 L80.0329623,265.789665 C80.0329623,265.789665 59.0503969,257.059351 42.2755277,248.691638 C25.5006586,240.323925 29.6943759,230.561593 29.6943759,230.561593 C29.6943759,230.561593 30.8965749,228.162849 30.938512,224.549391 C30.9524911,222.654104 30.6589309,220.408768 29.6943759,218.010024 C26.8985644,211.03693 33.8880932,209.642311 33.8880932,209.642311 L42.2755277,212.431548 L49.2650565,212.431548 C49.2650565,212.431548 42.2755277,206.853073 49.2650565,201.274598 C56.2545853,195.696122 60.4483026,209.642311 60.4483026,209.642311 L64.6420199,219.404643 L70.2336429,229.166974 L79.0823864,235.205674 L88.6580408,240.323925 Z"
                                  id="Fill-49" fill="#FFE3B4"></path>
                            <path d="M88.4061382,243.671568 L88.0706408,248.021384 L84.2124209,259.849147 L80.0326827,265.788828 C80.0326827,265.788828 59.0501173,257.059909 42.2752482,248.692196 C25.5003791,240.324483 29.6940963,230.562151 29.6940963,230.562151 C29.6940963,230.562151 30.8962953,228.163407 30.9382325,224.549949 C38.7105885,230.143765 45.392578,234.397353 50.6626827,237.535245 C60.2942534,243.281075 65.3267141,245.428788 71.6312691,245.902958 C79.1100649,246.474752 84.464044,244.409322 88.4061382,243.671568"
                                  id="Fill-51" fill="#DCA486"></path>
                            <path d="M219.80928,178.960696 C219.80928,178.960696 220.032945,179.23962 220.424358,179.783522 C223.304044,183.674508 235.186243,200.840871 235.186243,218.010024 C235.186243,237.534687 217.013468,258.45397 217.013468,258.45397 L179.270013,298.897916 L170.882578,307.265629 C170.882578,307.265629 159.699332,314.238723 140.128651,304.476391 C120.557971,294.71406 80.0187037,277.978634 80.0187037,277.978634 L71.6312691,273.794777 L75.8249864,266.821683 L77.5444105,261.661593 L81.5424209,249.639979 L84.2124209,233.350831 L105.446609,237.883342 L135.85106,246.59971 L152.709803,251.480876 L169.191112,245.163252 C169.191112,245.163252 179.242054,243.141055 179.256034,228.483611 L177.872107,220.799261 L180.667918,216.615405 L180.667918,209.642311 L170.882578,208.247692 L162.523102,211.022983 C163.068285,210.74406 173.566557,205.095853 169.484672,191.512266 L165.290955,185.933791 L159.699332,183.144553 L152.709803,181.749934 L158.301426,159.436033 C158.301426,159.436033 162.495143,156.646795 173.67839,160.830652 C184.861636,165.014508 187.657447,163.619889 187.657447,163.619889 L219.80928,178.960696 Z"
                                  id="Fill-53" fill="#8E674A"></path>
                            <path d="M77.921845,259.804937 L152.199568,291.511596 C156.684049,293.426408 161.891248,292.278637 165.149766,288.658206 L211.370123,237.306946 C217.841028,230.117686 225.885976,224.509924 234.877306,220.92157 L235.186243,220.798843 L232.517641,232.068758 L219.933693,253.954511 L184.287096,294.713641 L170.882578,307.265211 L159.699332,309.661166 L149.913992,308.392063 L73.0291749,273.794359 L73.0291749,268.215883 L77.921845,259.804937 Z"
                                  id="Fill-55" fill="#774C3F"></path>
                            <path d="M95.395667,264.729755 C95.395667,266.655723 93.8314105,268.216302 91.9009026,268.216302 C89.9703948,268.216302 88.4061382,266.655723 88.4061382,264.729755 C88.4061382,262.803786 89.9703948,261.243208 91.9009026,261.243208 C93.8314105,261.243208 95.395667,262.803786 95.395667,264.729755"
                                  id="Fill-57" fill="#280911"></path>
                            <path d="M105.181007,268.913611 C105.181007,270.83958 103.616751,272.400158 101.686243,272.400158 C99.7557351,272.400158 98.1914785,270.83958 98.1914785,268.913611 C98.1914785,266.987643 99.7557351,265.427064 101.686243,265.427064 C103.616751,265.427064 105.181007,266.987643 105.181007,268.913611"
                                  id="Fill-59" fill="#280911"></path>
                            <path d="M114.966348,273.097468 C114.966348,275.023436 113.402091,276.584015 111.471583,276.584015 C109.541075,276.584015 107.976819,275.023436 107.976819,273.097468 C107.976819,271.171499 109.541075,269.610921 111.471583,269.610921 C113.402091,269.610921 114.966348,271.171499 114.966348,273.097468"
                                  id="Fill-61" fill="#280911"></path>
                            <path d="M146.092956,213.211838 L144.321809,198.484663 C144.321809,198.484663 142.923904,181.749237 158.300867,180.354618 C173.67783,178.959999 176.473642,192.906187 176.473642,192.906187 L178.235003,211.036232 L154.10715,218.009326 L146.092956,213.211838 Z"
                                  id="Fill-63" fill="#FFFFFF"></path>
                            <path d="M109.374725,238.929306 L138.730746,226.377737 L142.924463,220.799261 L149.913992,204.063835 C149.913992,204.063835 155.505615,195.696122 161.097238,198.48536 C166.688861,201.274598 162.495143,209.642311 162.495143,209.642311 L172.280484,209.642311 C172.280484,209.642311 182.065824,208.247692 180.667918,216.615405 C179.270013,224.983118 179.270013,226.377737 179.270013,226.377737 L177.872107,237.534687 L170.882578,244.507782 L152.709803,251.480876 L109.374725,238.929306 Z"
                                  id="Fill-65" fill="#FFE3B4"></path>
                            <path d="M131.741217,245.9024 L148.379091,241.254136 C160.237526,237.941916 170.628159,230.734526 177.872107,220.799261 L179.029573,232.069176 C179.029573,232.069176 180.667918,238.929306 169.484672,244.507782 C158.301426,250.086257 150.836609,251.480876 150.836609,251.480876 L131.741217,245.9024 Z"
                                  id="Fill-67" fill="#DCA486"></path>
                            <polygon id="Fill-69" fill="#C4D5D7"
                                     points="40.8773424 258.45397 56.9532586 255.674495 47.9870911 251.480876 36.4655518 245.170226"></polygon>
                            <polygon id="Fill-71" fill="#C4D5D7"
                                     points="22.7045675 134.332894 32.4899079 131.543656 42.2752482 211.03693 32.6995937 210.02862"></polygon>
                            <polygon id="Fill-73" fill="#280911" points="152.709803 251.480876 165.588709 246.543925 165.290955 254.270113"></polygon>
                        </g>
                        <g id="Group-91">
                            <path d="M110.154795,81.3170684 C114.437712,79.6717084 118.692692,77.7779396 123.055233,76.3600551 C129.747815,74.184384 135.906779,75.9204551 142.567233,77.1304018 C145.203197,77.6090773 146.334692,73.5759218 143.680568,73.0930596 C137.634754,71.9947573 131.277429,70.1428551 125.140815,71.4100196 C119.637001,72.5473973 114.268687,75.2701262 109.040063,77.2797262 C106.549377,78.2370773 107.630584,82.2869796 110.154795,81.3170684"
                                  id="Fill-76" fill="#280911"></path>
                            <path d="M115.534285,130.236454 L80.6116041,130.236454 C77.9155732,130.236454 77.9099856,134.423121 80.6116041,134.423121 L115.534285,134.423121 C118.230315,134.423121 118.235903,130.236454 115.534285,130.236454"
                                  id="Fill-78" fill="#280911"></path>
                            <path d="M102.263666,144.19201 L93.8822227,144.19201 C91.1861918,144.19201 91.1806041,148.378676 93.8822227,148.378676 L102.263666,148.378676 C104.959697,148.378676 104.965285,144.19201 102.263666,144.19201"
                                  id="Fill-80" fill="#280911"></path>
                            <path d="M168.267532,91.1608987 C165.570104,91.1608987 165.565913,95.3475653 168.267532,95.3475653 C170.03881,95.3475653 171.80031,95.4368809 173.440279,94.6260631 C175.795465,93.4621698 177.347429,91.0045964 177.347429,88.3697876 C177.347429,85.8410409 175.903027,83.4127742 173.663785,82.2293431 C171.951176,81.322232 170.139388,81.3920098 168.267532,81.3920098 C165.570104,81.3920098 165.565913,85.5786764 168.267532,85.5786764 C170.30981,85.5786764 173.156707,85.529832 173.156707,88.3697876 C173.156707,91.2111387 170.311207,91.1608987 168.267532,91.1608987"
                                  id="Fill-82" fill="#280911"></path>
                            <path d="M136.346805,85.6536178 C132.841965,85.0702756 128.92364,83.8407911 125.49563,85.2544889 C122.806584,86.3639556 120.378759,88.4461244 117.969094,90.0510133 C115.735439,91.5386756 117.832197,95.1657244 120.084011,93.6655022 C121.367769,92.8114222 122.637558,91.8987289 123.9283,91.0320889 C123.926903,91.0753511 123.915728,91.1172178 123.915728,91.16048 C123.915728,93.0877422 125.478867,94.6493689 127.407996,94.6493689 C129.337125,94.6493689 130.900264,93.0877422 130.900264,91.16048 C130.900264,90.2645333 130.552434,89.4551111 129.995068,88.83688 C131.743996,88.9234044 133.540419,89.4090578 135.232073,89.69096 C137.870831,90.13056 139.00512,86.0960089 136.346805,85.6536178"
                                  id="Fill-84" fill="#280911"></path>
                            <path d="M78.6813577,93.6657813 C80.9317753,95.164608 83.0313268,91.5403502 80.7962753,90.0512924 C78.3866103,88.4464036 75.9601825,86.3656302 73.2697392,85.254768 C69.840332,83.8396747 65.9234041,85.0691591 62.4185639,85.6538969 C59.7644402,86.0948924 60.8903474,90.1308391 63.5332959,89.6898436 C65.2249505,89.4093369 67.0213732,88.9236836 68.770301,88.8371591 C68.2129351,89.4539947 67.8651052,90.2634169 67.8651052,91.1607591 C67.8651052,93.0880213 69.4282443,94.649648 71.3573732,94.649648 C73.2865021,94.649648 74.8496412,93.0880213 74.8496412,91.1607591 C74.8496412,91.1161013 74.838466,91.0756302 74.8370691,91.032368 C76.1278113,91.899008 77.3976,92.8117013 78.6813577,93.6657813"
                                  id="Fill-86" fill="#280911"></path>
                            <g id="Group-90">
                                <mask id="mask-2" fill="white">
                                    <use xlink:href="#path-1"></use>
                                </mask>
                                <g id="Clip-89"></g>
                                <path d="M254.03554,215.93766 C248.79155,226.881607 242.048679,237.111029 234.009478,246.205865 C231.264555,249.312372 228.37156,252.290487 225.35005,255.130443 C232.83887,245.555536 239.868107,234.728816 240.055292,222.932185 C240.302545,207.465243 233.03304,191.350763 223.363648,179.478772 C223.300787,179.402016 223.235132,179.346194 223.169478,179.283394 C223.161096,179.27502 223.156906,179.265252 223.148524,179.255483 C222.159514,178.08182 216.050839,175.713563 213.759911,174.567812 C207.972524,171.674825 202.186535,168.781838 196.397751,165.888852 C188.20489,161.792896 179.735442,160.047056 170.832952,157.751367 C167.593524,156.915429 162.837055,154.689518 159.953839,157.469465 C157.456169,155.81294 155.147081,153.712629 153.388375,151.32902 C160.980565,145.836114 167.071081,139.240718 169.820194,129.907243 C172.144648,122.011189 171.458766,113.235936 171.342823,105.006345 C191.071344,102.964647 191.076931,72.3489493 171.317679,70.3337671 C171.240849,56.5763804 170.204344,43.6116693 163.190473,31.3391538 C199.616225,39.4738471 231.423803,62.5200516 249.878344,95.1788427 C270.641973,131.919634 272.283339,177.844576 254.03554,215.93766 L254.03554,215.93766 Z M220.56704,182.65366 L220.569834,182.65366 L220.569834,182.655056 C220.498591,182.66622 220.513957,182.660638 220.56704,182.65366 L220.56704,182.65366 Z M217.664266,257.959234 C215.049256,261.284843 212.369988,264.560212 209.639035,267.792318 C209.608303,267.82302 209.574777,267.84814 209.544045,267.878843 C209.422514,268.004443 209.319143,268.131438 209.235328,268.26262 C205.764014,272.359972 202.208885,276.384754 198.599277,280.360692 C196.590524,277.857065 193.728261,275.952132 189.594813,275.003154 C185.633184,274.094647 181.73721,275.206905 177.876158,273.611785 C172.769065,271.5031 170.535411,267.348532 169.729395,262.148692 C169.118947,258.193687 168.885663,254.134016 168.551803,250.124585 C175.325406,247.947518 181.418715,244.571669 183.377179,237.845092 C184.276787,234.759518 183.839555,231.693483 183.426071,228.58558 C183.188596,226.810434 182.867308,225.021332 182.713648,223.23502 C182.68571,222.912647 182.638215,222.701918 182.585132,222.553989 C182.589323,222.500958 182.599102,222.452114 182.599102,222.399083 C182.599102,222.290229 182.601895,222.181376 182.604689,222.072523 C182.793272,221.906452 183.07405,221.623154 183.490328,221.127732 C186.912751,217.04294 186.588669,210.916452 181.492751,209.134327 C181.08206,203.655376 181.10022,197.626576 179.401581,192.458834 C176.688787,184.194354 168.029359,179.075456 159.534766,180.321687 C159.424411,180.331456 159.318246,180.349598 159.213478,180.374718 C158.974607,180.413794 158.734339,180.438914 158.496864,180.489154 C158.239834,180.542185 157.995375,180.61894 157.743931,180.683136 C158.799993,176.848149 159.833705,173.00758 160.786395,169.146078 C161.279504,167.143456 161.486246,160.944398 163.684978,160.231269 C166.294401,159.385563 173.528983,162.77118 176.170535,163.452212 C184.255834,165.538567 188.759462,166.742932 195.808256,170.265314 C200.711401,172.717305 205.613148,175.1679 210.516292,177.619892 C211.66455,178.193465 214.145457,179.918372 216.454545,181.193909 C214.733555,182.047989 212.938529,183.238398 211.841957,183.849652 C204.146395,188.135403 197.61306,193.935332 191.930442,200.62702 C190.195483,202.670114 193.145751,205.645438 194.893282,203.586994 C201.854071,195.392292 210.018993,188.97134 219.832266,184.561385 C220.375663,184.317163 220.946998,184.078523 221.491792,183.828718 C229.095158,193.661803 234.781968,206.383687 235.729071,218.691092 C236.906663,233.99894 226.639395,246.540798 217.664266,257.959234 L217.664266,257.959234 Z M184.563153,295.35454 C177.778375,302.416052 171.060648,309.217989 160.507014,309.204034 C156.048086,309.197056 152.110205,307.833598 148.13321,306.073803 C134.545493,300.06454 120.994096,293.977127 107.441303,287.891109 C107.228973,287.729225 106.974736,287.609207 106.675797,287.547803 C101.767065,285.34422 96.8569366,283.136452 91.9440139,280.939847 C88.0927407,279.217732 84.2414675,277.492825 80.3887974,275.770709 C79.7336479,275.477643 75.6714418,274.2663 75.4255861,273.55038 C75.7971634,274.633332 78.7306686,269.65678 79.0114469,269.162754 C80.7170706,266.162309 82.1796325,263.013936 83.4117046,259.791598 C84.8826479,255.946843 85.9931892,251.965323 86.6958335,247.909838 C87.0548387,245.838834 87.3020912,243.741314 87.4515603,241.643794 C87.5675036,240.022158 87.1149057,236.861225 87.2657716,236.795634 C88.3078644,236.346265 92.5977665,238.216309 93.6258902,238.499607 C96.4797716,239.285305 99.3280655,240.09054 102.176359,240.89438 C109.666576,243.011438 117.149808,245.155012 124.63723,247.280443 C138.01122,251.076354 151.38521,255.09974 164.938004,258.229972 C165.618297,265.270549 167.25687,272.147847 173.587653,276.154487 C180.776138,280.703998 190.241581,276.843892 195.75238,283.47278 C192.064545,287.475234 188.329215,291.434425 184.563153,295.35454 L184.563153,295.35454 Z M68.4801634,298.941118 C59.6279624,302.45094 49.7839572,301.500567 43.3791376,293.742674 C36.3512974,285.226994 37.4618387,271.316096 39.8086428,259.851607 C39.8477562,260.094434 39.8854727,260.335865 39.9245861,260.578692 C40.0544985,261.395092 41.1133541,262.2087 41.9445139,262.116594 C45.1476222,261.759332 48.3493335,261.402069 51.5524418,261.044807 C51.9226222,261.046203 52.2676582,261.004336 52.6043129,260.926185 L60.7063747,260.02326 C61.0262665,259.986976 61.3056479,259.892078 61.5487098,259.758105 C66.1738696,261.965874 70.8004263,264.172247 75.4255861,266.381412 C74.6195706,267.913732 73.7912046,269.450238 72.9418851,271.011865 C69.2624314,277.780309 77.9274469,279.231687 82.9591067,281.481323 C87.4753077,283.502087 91.9915088,285.52006 96.5063129,287.54222 C87.1763696,291.368834 77.8520139,295.221963 68.4801634,298.941118 L68.4801634,298.941118 Z M50.41955,256.940478 C50.3175758,256.961412 50.2183954,256.985136 50.1275964,257.017234 C47.9819469,257.255874 45.8362974,257.495909 43.689251,257.734549 C43.3302459,255.473749 42.9698438,253.214345 42.6094418,250.953545 C44.9506582,252.082549 47.3533387,253.084558 49.5967716,254.087963 C49.8719624,255.039732 50.1457562,255.988709 50.41955,256.940478 L50.41955,256.940478 Z M36.0733129,241.191634 C33.2962613,237.004967 34.3048284,231.666967 35.4195603,226.358274 C35.6737974,225.146932 36.4756222,223.281074 36.2884366,222.020887 C36.0593438,220.48438 34.1567562,219.433527 33.9989057,218.053323 C33.557483,214.162514 36.2339572,213.302852 39.0654881,213.919687 C41.3270809,214.410923 43.5858799,214.9203 45.8446789,215.417118 C48.2487562,215.946034 51.5510448,217.464398 53.911818,216.543332 C54.7890758,216.200025 55.4442253,215.514807 55.4498129,214.523963 C55.4623851,211.964514 52.496751,210.060976 52.4995448,207.687136 C52.5051325,202.679883 56.3675809,204.242905 57.9893902,206.817705 C60.5708747,210.910869 63.5281273,215.405954 65.3329314,219.914994 C66.9673129,223.999785 67.3654314,228.486496 70.2207098,232.01446 C73.2771428,235.790834 78.7166995,238.08094 82.8501479,240.553865 C82.7914778,243.063074 82.864117,245.664389 82.4492356,247.880532 C81.4378747,253.270167 79.5702098,258.027616 77.308617,262.681794 C69.1730294,258.894256 60.702184,255.369083 52.5232923,251.436407 C52.5163077,251.435012 52.5079263,251.430825 52.5009418,251.426638 C48.2236119,249.369589 44.0217149,247.209269 40.0097974,244.815892 C39.7876892,244.684709 39.5991067,244.540967 39.3937613,244.404203 C38.2524881,243.367305 37.1391531,242.302496 36.0733129,241.191634 L36.0733129,241.191634 Z M26.6833026,137.90238 C28.694849,137.134825 31.2162665,136.097927 33.090916,135.488069 C33.3940448,139.476567 34.2838747,143.548798 34.7686015,147.475892 C35.7394521,155.330078 36.7089057,163.182869 37.6797562,171.037056 C39.3029624,184.183189 40.9275655,197.330718 42.5465809,210.478247 C41.8159985,210.2731 41.1985655,210.107029 40.7739057,210.013527 C39.4845603,209.728834 38.1435294,209.463678 36.8416119,209.371572 C33.4555088,185.549438 30.0694057,161.725909 26.6833026,137.90238 L26.6833026,137.90238 Z M30.1490294,219.827074 C30.516416,220.58486 31.2316325,221.173785 31.5962253,221.934363 C31.7331222,222.21766 31.840684,222.383732 31.9300861,222.478629 C31.900751,222.629349 31.871416,222.803794 31.8420809,223.035456 C31.3824985,226.666692 30.0917562,230.172327 29.8095809,233.775652 C23.6394418,225.541874 18.8564314,216.169323 14.8920088,206.838638 C7.30959639,188.990878 3.12027165,170.008532 4.4277768,150.582398 C6.78994691,115.477198 23.5500397,83.0975182 49.8789469,60.0973671 C49.8705655,60.3053049 49.8496119,60.5132427 49.8426273,60.722576 C49.8132923,60.8593404 49.7951325,61.0030827 49.7951325,61.1565938 L49.7951325,61.8543716 C49.7951325,62.317696 49.9250448,62.6958916 50.1275964,63.0001227 C51.4141479,69.4238649 52.7006995,75.8490027 53.9858541,82.2727449 L53.9858541,124.573429 C53.9858541,125.8699 53.9760758,127.167767 53.9649005,128.465634 C52.0134211,128.700087 50.0605448,128.930354 48.1062716,129.155038 C47.7584418,129.107589 47.393849,129.152247 47.0460191,129.276452 C43.0913747,129.732798 39.1409211,130.210078 35.2142149,130.799003 C31.6493077,130.824123 27.1945706,133.376594 23.8294211,134.49862 C22.6504314,134.889376 22.1992304,135.896967 22.3654624,137.07342 C25.818617,161.365856 29.2717716,185.658292 32.7249263,209.952123 C31.4551376,210.5243 30.3683438,211.550034 29.612617,213.291687 C28.6138284,215.590167 29.1083335,217.690478 30.1490294,219.827074 L30.1490294,219.827074 Z M100.308694,199.814807 C100.508452,199.718514 100.698431,199.590123 100.867457,199.400327 C101.642741,198.533687 102.70439,197.521909 103.84706,196.411047 L107.034803,205.307714 C106.224596,215.09614 105.41439,224.884567 104.602787,234.674389 C104.334581,232.5043 104.066375,230.334212 103.798169,228.165518 C103.587236,226.458754 103.433576,224.731056 103.162576,223.032665 C103.141622,222.898692 103.115081,222.813563 103.085746,222.754949 C103.134638,222.415829 103.075968,222.0795 102.951643,221.768292 C102.211282,216.026976 101.595246,210.225652 100.88422,204.47038 C100.692844,202.919918 100.500071,201.36806 100.308694,199.814807 L100.308694,199.814807 Z M97.7858799,224.821767 C98.2398747,224.7799 98.8391479,224.775714 99.4677562,224.745012 C99.4314366,225.700967 99.4216582,226.665296 99.5292201,227.529145 C99.8798438,230.363518 100.230468,233.199287 100.581091,236.03366 C97.0497098,234.911634 93.3856222,233.619349 89.789983,232.95646 C89.4211995,230.424923 89.0859418,228.025963 88.76605,225.674452 C91.7721943,225.388363 94.7783387,225.105065 97.7858799,224.821767 L97.7858799,224.821767 Z M97.6685397,178.44606 C98.5793232,179.08662 99.4915036,179.72718 100.402287,180.36774 C101.87323,181.401847 105.253746,182.888114 106.196658,184.439972 C107.724875,186.950576 102.714169,191.761056 99.6744985,194.680558 C99.0053799,189.269989 98.3376582,183.858025 97.6685397,178.44606 L97.6685397,178.44606 Z M97.5498026,211.392336 C97.7565448,213.072585 97.964684,214.751438 98.1714263,216.431687 C98.3278799,217.694665 98.2692098,219.274434 98.6491686,220.502523 C97.5819314,220.541598 96.444849,220.762096 95.4251067,220.858389 C93.0196325,221.084469 90.6155552,221.31334 88.2100809,221.53942 C87.8273284,218.660389 87.441782,215.740887 87.0171222,212.603678 C90.5289469,212.217109 94.0407716,211.819376 97.5498026,211.392336 L97.5498026,211.392336 Z M85.3911222,198.307607 C88.5914366,197.921038 91.7931479,197.530283 94.9934624,197.13534 C95.2868129,197.362816 95.5787665,197.591687 95.8707201,197.819163 C96.1459108,200.035305 96.4197046,202.252843 96.6934985,204.47038 C96.8080448,205.402612 96.9239881,206.333447 97.0385345,207.265678 C93.5728077,207.684345 90.105684,208.076496 86.6371634,208.458878 C86.2236789,205.074656 85.8074005,201.690434 85.3911222,198.307607 L85.3911222,198.307607 Z M84.6284108,226.062416 C84.9329366,228.305074 85.2402562,230.525403 85.5461789,232.659207 C85.0865964,232.784807 84.6423799,233.026238 84.2023541,233.456069 C83.6449881,234.000336 83.5681582,234.86558 83.3851634,235.567545 C83.3530345,235.688958 83.3376686,235.822932 83.3097304,235.947136 C80.726849,234.41342 78.2892459,232.960647 76.2036634,231.1855 C76.0206686,229.757847 75.8432613,228.331589 75.6616634,226.905332 C78.6496479,226.624825 81.6390294,226.344318 84.6284108,226.062416 L84.6284108,226.062416 Z M82.8850706,213.057234 C83.255251,215.788336 83.6561634,218.815296 84.0724418,221.92878 C84.0598696,221.930176 84.0486943,221.931572 84.0361222,221.932967 C81.0690912,222.212078 78.1020603,222.489794 75.1364263,222.768905 C74.764849,219.854985 74.3960655,216.941065 74.027282,214.027145 C76.9789469,213.699189 79.9320088,213.378212 82.8850706,213.057234 L82.8850706,213.057234 Z M94.125983,183.697536 C94.5045448,186.759385 94.8831067,189.819838 95.2616686,192.881687 C95.1289624,192.897038 94.9976531,192.926345 94.8719314,192.964025 C91.5417046,193.374318 88.2114778,193.780425 84.8798541,194.180949 C84.4971015,191.113518 84.1059675,188.047483 83.7064521,184.980052 C87.1791634,184.553012 90.6532716,184.125972 94.125983,183.697536 L94.125983,183.697536 Z M83.1616582,180.860372 C82.8934521,178.866123 82.6210552,176.871874 82.3402768,174.877625 C84.068251,175.283732 85.905184,175.534932 87.8915861,175.592149 C89.6363232,175.642389 91.385251,175.678674 93.1383696,175.703794 C93.2990139,176.994683 93.4568644,178.284176 93.6175088,179.573669 C90.1322253,180.0035 86.6469418,180.431936 83.1616582,180.860372 L83.1616582,180.860372 Z M81.2618644,198.801634 C81.675349,202.155154 82.0874366,205.524025 82.502318,208.913829 C79.5017613,209.237598 76.5026015,209.564158 73.5034418,209.899092 C73.078782,206.549758 72.6499314,203.20182 72.2280655,199.853883 C75.2411943,199.510576 78.2529263,199.161687 81.2618644,198.801634 L81.2618644,198.801634 Z M70.5727304,186.5975 C73.5760809,186.227678 76.5794314,185.85646 79.582782,185.488034 C79.9795036,188.537323 80.3692407,191.600567 80.7519933,194.676372 C77.7388644,195.033634 74.7243387,195.382523 71.7098129,195.725829 C71.3270603,192.683518 70.9526892,189.639812 70.5727304,186.5975 L70.5727304,186.5975 Z M69.8966273,214.504425 C70.262617,217.389038 70.6272098,220.272256 70.9945964,223.158265 C70.9163696,223.165243 70.8367459,223.173616 70.7585191,223.179198 C70.7417562,223.124772 70.7194057,223.074532 70.7012459,223.018709 C69.7778902,220.086647 68.6086789,217.412763 67.2858077,214.805865 C68.1560809,214.702594 69.0263541,214.604905 69.8966273,214.504425 L69.8966273,214.504425 Z M68.2887871,168.264087 C68.2245294,167.737963 68.1574778,167.211838 68.0932201,166.685714 C68.607282,167.151829 69.1227407,167.608176 69.6423902,168.047776 C69.1925861,168.118949 68.7413851,168.191518 68.2887871,168.264087 L68.2887871,168.264087 Z M78.0601531,174.25102 C78.3982046,176.615092 78.7180964,178.990327 79.0365912,181.368354 C76.044416,181.73678 73.0508438,182.105207 70.0586686,182.473634 C69.6395964,179.104763 69.2177304,175.735892 68.8000552,172.368416 C70.6593387,172.068372 72.5018593,171.780887 74.312251,171.558994 C74.3415861,171.554807 74.3681273,171.543643 74.3974624,171.539456 C75.5820397,172.270727 76.8043335,172.925243 78.0866943,173.476487 C78.0391995,173.717918 78.0210397,173.9747 78.0601531,174.25102 L78.0601531,174.25102 Z M68.0974108,200.324185 C68.5192768,203.676309 68.9481273,207.027038 69.3727871,210.377767 C68.03455,210.532674 66.694916,210.680603 65.3580758,210.843883 C65.2910242,210.85086 65.2351479,210.871794 65.1722871,210.884354 C64.4500861,209.603234 63.7013438,208.315136 62.9372356,206.997732 C61.8504418,205.122105 60.6435139,202.914336 59.0845655,201.285723 C62.0907098,200.975909 65.0954572,200.657723 68.0974108,200.324185 L68.0974108,200.324185 Z M66.4448696,187.105483 C66.8234314,190.135234 67.1964057,193.16638 67.5777613,196.196132 C64.3578902,196.550603 61.1366222,196.895305 57.9125603,197.22326 C57.8888129,197.226052 57.8692562,197.234425 57.8469057,197.237216 C57.5661273,194.254914 57.2755706,191.265634 56.9766325,188.270772 C60.1322459,187.881412 63.2892562,187.493447 66.4448696,187.105483 L66.4448696,187.105483 Z M64.691751,173.025723 C65.1038387,176.344354 65.5173232,179.662985 65.9322046,182.981616 C62.8087201,183.365394 59.6866325,183.750567 56.5631479,184.134345 C56.2167149,180.764078 55.8535191,177.388229 55.4763541,174.01238 C58.5034521,173.903527 61.5989985,173.507189 64.691751,173.025723 L64.691751,173.025723 Z M61.0863335,159.646532 C61.8225036,160.474096 62.5977871,161.297474 63.4065964,162.126434 C63.3842459,162.2939 63.3772613,162.471136 63.4024057,162.669305 C63.6580397,164.752869 63.9220552,166.836434 64.180483,168.919998 C61.093318,169.3903 58.0089469,169.764309 54.9986119,169.839669 C54.6396067,166.735954 54.2666325,163.633634 53.8782923,160.534105 C56.2809727,160.238247 58.6836531,159.942389 61.0863335,159.646532 L61.0863335,159.646532 Z M53.3600397,156.411634 C52.9158232,152.993918 52.4464624,149.587367 51.9603387,146.187794 L54.1967871,145.907287 C54.7024675,149.779954 56.0854057,152.942283 58.0620294,155.832478 C56.4946995,156.025065 54.9273696,156.217652 53.3600397,156.411634 L53.3600397,156.411634 Z M53.9607098,141.749927 C53.0932304,141.85878 52.225751,141.967634 51.3582716,142.076487 C50.9126582,139.084416 50.4488851,136.103509 49.9655552,133.133767 C51.3247459,132.973278 52.6587923,132.81558 53.9313747,132.663465 C53.9048335,135.693216 53.9020397,138.724363 53.9607098,141.749927 L53.9607098,141.749927 Z M38.390782,143.675794 C37.9074521,140.6907 37.3822149,137.670718 37.2201737,134.702372 C39.6745397,134.356274 42.6988438,133.987847 45.8237253,133.61942 C46.3056582,136.572416 46.7708284,139.565883 47.2206325,142.594238 C44.2787459,142.962665 41.3354624,143.324114 38.390782,143.675794 L38.390782,143.675794 Z M47.8213026,146.705545 C48.3032356,150.084185 48.7711995,153.486549 49.2168129,156.921012 C46.2316222,157.289438 43.2478284,157.657865 40.2626376,158.024896 C39.8407716,154.612763 39.4189057,151.200629 38.9984366,147.788496 C41.9389263,147.434025 44.8808129,147.075367 47.8213026,146.705545 L47.8213026,146.705545 Z M50.750617,212.505989 C49.6456634,212.348292 48.2766943,212.034292 46.8853747,211.674238 C45.2174675,198.12758 43.5425758,184.582318 41.8704778,171.037056 C41.5030912,168.074292 41.1384985,165.111527 40.7725088,162.148763 C43.7590964,161.781732 46.745684,161.411909 49.7336686,161.044878 C51.3135706,173.699776 52.6601892,186.548656 53.8210191,198.997012 C53.3446737,199.033296 52.8515655,199.105865 52.3277253,199.262167 C49.5869933,200.077172 47.5461119,202.593358 47.5475088,205.526816 C47.5475088,208.041607 49.7364624,210.287056 50.750617,212.505989 L50.750617,212.505989 Z M157.083194,164.977554 C146.535148,170.240194 135.745437,175.174878 125.384576,180.790594 C124.198602,181.43534 123.311565,182.152656 122.653622,182.921607 C122.643844,182.921607 122.636859,182.918816 122.627081,182.918816 L110.145715,182.918816 C108.947169,180.87014 106.55287,179.587625 104.672632,178.267429 C103.468498,177.420327 102.264364,176.57462 101.06023,175.728914 C103.985354,175.710772 106.906287,175.6703 109.810457,175.592149 C118.048019,175.371652 123.813055,171.718087 130.26537,167.276034 C136.83223,162.754434 143.399091,158.234229 149.964555,153.712629 C152.168875,156.683767 154.994818,159.286478 158.114112,161.280727 C157.823555,162.479509 157.634973,163.721554 157.44639,164.839394 C157.327653,164.877074 157.206122,164.917545 157.083194,164.977554 L157.083194,164.977554 Z M148.362303,198.1527 C148.587205,193.382692 150.167107,189.074612 155.177813,186.169065 C156.148663,185.606656 157.125102,185.206132 158.098746,184.893527 C158.491277,188.964363 158.882411,193.033803 159.274942,197.104638 C155.637395,197.453527 151.998452,197.803812 148.362303,198.1527 L148.362303,198.1527 Z M148.451705,202.330994 C150.492586,202.13422 152.534864,201.938843 154.577143,201.742069 C152.600519,203.916345 150.76638,206.560923 149.242354,209.058967 C148.947607,206.834452 148.623524,204.563883 148.451705,202.330994 L148.451705,202.330994 Z M111.085834,206.992149 L119.837457,206.992149 C120.689571,216.082798 121.540287,225.172052 122.393797,234.2627 L111.569163,238.523332 C111.268828,238.640558 111.022973,238.805234 110.823215,238.99782 C110.045138,238.777323 109.268457,238.556825 108.491777,238.336327 C109.356462,227.887803 110.221148,217.439278 111.085834,206.992149 L111.085834,206.992149 Z M120.982921,202.805483 L110.578756,202.805483 C109.415132,199.55942 108.251509,196.313358 107.089282,193.067296 C108.768364,191.170736 110.190416,189.137412 110.693303,187.105483 L121.184076,187.105483 C121.251127,189.444434 122.445483,191.988532 124.056117,194.49774 L120.982921,202.805483 Z M131.252983,182.535038 C139.570169,178.386052 147.887354,174.235669 156.203143,170.088078 C155.130318,174.315216 154.008602,178.529794 152.832406,182.730416 C148.36789,185.446167 145.400859,189.985909 144.436993,195.178772 C141.148674,197.267918 137.533478,198.987243 134.046797,200.783323 C131.969596,197.655883 129.914746,194.5103 127.685282,191.493109 C123.651014,186.037883 126.432256,184.93958 131.252983,182.535038 L131.252983,182.535038 Z M126.992416,198.599278 C128.682674,200.791696 130.381313,202.843163 131.535158,204.559696 C132.183323,205.521234 133.352535,205.8771 134.401612,205.310505 C137.572591,203.598158 140.953107,202.049092 144.133864,200.26278 C144.441184,205.395634 145.595029,210.570354 145.642524,215.71158 C145.583854,215.835785 145.523787,215.964176 145.472102,216.077216 C143.52621,220.347616 142.720194,225.246016 138.347875,227.878034 C135.982911,229.300105 133.03404,230.076034 130.483287,231.079438 C129.133875,231.609749 127.784462,232.141456 126.43505,232.673163 C125.609478,223.869998 124.785303,215.065438 123.95973,206.262274 C124.163679,206.026425 124.341086,205.762665 124.455632,205.454247 C125.300761,203.171118 126.14589,200.885198 126.992416,198.599278 L126.992416,198.599278 Z M164.599952,253.852114 C162.811911,253.42926 161.026663,252.995243 159.245607,252.545874 C160.938658,252.159305 162.686189,251.751803 164.436514,251.301038 C164.490993,252.142558 164.54687,252.992452 164.599952,253.852114 L164.599952,253.852114 Z M162.450112,207.331269 C161.695782,209.359012 159.920313,210.510345 159.769447,212.732069 C159.721952,213.408914 160.188519,214.246247 160.807349,214.540709 C164.246535,216.179092 170.742153,213.960158 174.463514,213.427056 C175.248576,213.314016 177.939019,212.457145 178.777163,212.807429 C180.234138,213.417287 180.890684,217.109927 180.527488,218.167758 C180.283029,218.873909 179.384818,219.330256 179.052354,220.004309 C179.039782,220.029429 179.035591,220.053154 179.023019,220.078274 C178.655632,220.445305 178.423746,220.944914 178.422349,221.519883 C178.422349,221.812949 178.40838,222.106016 178.40838,222.399083 C178.40838,222.559572 178.436318,222.717269 178.474035,222.873572 C178.518736,223.857438 178.742241,224.876194 178.904282,226.101492 C179.358277,229.510834 180.319349,233.350007 179.335926,236.731438 C177.842632,241.875456 173.730138,243.797136 169.165045,245.099189 C163.334354,246.762692 157.503663,248.427589 151.67437,250.092487 C151.421529,250.16366 151.216184,250.273909 151.031792,250.400905 C142.574916,248.109403 134.164138,245.630896 125.751962,243.2431 C122.886906,242.428096 120.020452,241.614487 117.156792,240.798087 L130.437189,235.573127 C136.554246,233.167189 143.033102,231.496709 146.286498,225.199963 C149.006277,219.938718 150.837622,214.881225 154.226519,209.938167 C155.461385,208.1379 157.36537,203.647003 159.457937,202.62406 C164.457468,200.177652 163.158344,205.416567 162.450112,207.331269 L162.450112,207.331269 Z M163.42655,196.705509 L162.226607,184.239012 C168.488942,184.322745 173.974596,189.067634 175.733303,195.523474 C171.631983,195.91702 167.529266,196.311963 163.42655,196.705509 L163.42655,196.705509 Z M167.495741,200.500025 C170.469756,200.215332 173.445169,199.929243 176.419184,199.643154 C176.767014,202.62406 176.993313,205.628692 177.246153,208.620763 C173.411643,208.735198 169.268416,209.943749 165.583375,210.494994 C166.223158,209.423207 167.029174,207.869954 167.245694,207.374532 C168.258452,205.056514 168.715241,202.681278 167.495741,200.500025 L167.495741,200.500025 Z M121.731663,5.87026489 C135.97872,8.90141156 148.583014,17.3696427 156.868071,29.2011627 C156.96306,29.4677138 157.119514,29.7063538 157.34721,29.900336 C158.428416,31.4926649 159.439777,33.1394204 160.358942,34.8447893 C166.776334,46.755856 167.135339,59.2014204 167.135339,72.3210382 C167.135339,73.4528338 168.096411,74.4143716 169.230699,74.4143716 C186.303699,74.4143716 186.334431,100.929927 169.230699,100.929927 C168.097808,100.929927 167.135339,101.888674 167.135339,103.02326 C167.135339,109.137189 167.467803,115.34462 167.076669,121.44878 C166.341895,132.920247 159.916122,141.689918 150.769174,148.087145 C144.590653,152.40918 138.349272,156.639109 132.138622,160.915092 C126.002009,165.140834 119.954797,170.389518 112.299746,171.204523 C105.566653,171.921838 98.5918954,171.405483 91.8294675,171.405483 C88.5132098,171.405483 85.167617,171.57574 81.9295861,170.674212 C76.3950397,169.134914 72.6150088,165.425527 68.7064624,161.519367 C63.0643541,155.882718 58.4322098,151.130852 58.1765758,142.59982 C57.9977716,136.603118 58.1765758,130.572923 58.1765758,124.573429 L58.1765758,82.0899271 C58.1765758,81.8833849 58.1458438,81.7005671 58.1011428,81.5261227 C57.7882356,79.9658916 57.4767253,78.4056604 57.163818,76.8454293 C59.8821995,76.3165138 62.6075655,75.7247982 65.3441067,75.3745138 C70.653751,74.6934827 74.9771789,76.2802293 79.7699675,78.1209671 C83.0289521,79.374176 85.9415036,79.3267271 85.2807665,82.9900604 C84.5613593,86.9785582 82.7425861,91.0200871 81.5202923,94.8871716 C79.3676582,101.697483 78.1048541,109.326985 85.6621222,113.420149 C91.1128541,116.371749 99.4426119,114.885483 105.407406,114.885483 C108.103437,114.885483 108.107627,110.698816 105.407406,110.698816 C97.5972974,110.698816 82.3947562,113.583429 84.0892046,100.656398 C84.9077923,94.4098916 89.0621943,88.5987982 89.8751943,82.3522916 C90.7314985,75.7722471 82.0385448,74.4311182 77.2736943,72.6964427 C70.0838129,70.0811716 63.4890139,71.4195093 56.3452304,72.7620338 L54.0165861,61.1286827 C54.9790552,25.9858027 86.2683799,-1.675504 121.731663,5.87026489 L121.731663,5.87026489 Z M220.068344,53.8355093 C202.602813,39.8813493 181.974684,30.5674116 160.029272,26.4156338 C150.442297,12.944336 135.544282,3.61783822 119.104081,1.163056 C84.4412253,-4.01585067 54.8435552,21.0469316 50.3902149,54.1941671 C21.2130139,78.0246738 2.74170979,112.909376 0.237055155,150.582398 C-1.08581598,170.48302 3.21945206,189.907758 10.9401582,208.207678 C16.2805345,220.865367 23.123983,233.676567 32.7347046,243.763643 C33.7181273,245.036389 34.8929263,246.155625 36.2032253,247.156238 C36.5859778,247.507918 36.9617459,247.867972 37.3542768,248.209883 C37.5889572,248.416425 37.8376067,248.553189 38.08905,248.641109 C38.0764778,248.812763 38.0792716,248.989998 38.1086067,249.177003 L38.1686737,249.549616 C37.9772974,249.770114 37.8222407,250.046434 37.7314418,250.395323 C34.4808387,262.808789 31.1128954,279.895972 37.2243644,291.922869 C42.0395036,301.402878 52.8836943,306.838567 63.3604985,304.926656 C70.3520191,303.651118 77.2317871,299.867767 83.7567407,297.210629 C89.3611325,294.930292 94.9669211,292.65414 100.568519,290.366825 C101.430411,290.599883 102.293699,290.83294 103.161179,291.043669 C103.947638,291.236256 104.829086,291.5363 105.670024,291.640967 C119.116653,297.661394 132.561885,303.686007 146.016895,309.689687 C157.408674,314.770905 169.933344,314.74718 179.784334,306.153349 C186.196138,300.558567 192.283859,294.300896 198.13271,287.796212 C199.684674,292.32758 199.356401,297.971207 199.698643,302.587705 C199.895607,305.258798 204.087725,305.281127 203.889364,302.587705 C203.442354,296.563092 203.255169,289.888149 201.031292,284.537589 C205.089308,279.90574 209.036968,275.185972 212.878462,270.495509 C216.109509,267.412727 220.480431,265.001207 223.884694,262.073332 C228.276571,258.295563 232.421194,254.237287 236.290627,249.926416 C243.480509,241.915927 249.756813,233.054149 254.849937,223.568558 C265.393792,203.931696 270.925545,181.823305 270.940911,159.54326 C270.967452,118.714887 251.972308,79.3281227 220.068344,53.8355093 L220.068344,53.8355093 Z"
                                      id="Fill-88" fill="#280911" mask="url(#mask-2)"></path>
                            </g>
                        </g>
                    </g>
                    <g id="Group-106" transform="translate(27.000000, 333.000000)">
                        <path d="M9.35872,13.53186 C9.97472,12.01986 10.92672,10.84386 12.21472,10.00246 C12.88672,9.55726 13.58672,9.22126 14.31472,8.99726 C15.04272,8.77326 15.82672,8.66126 16.66672,8.66126 C17.67472,8.66126 18.68272,8.88526 19.69072,9.33186 C21.03472,9.89186 22.21072,10.84386 23.21872,12.18786 C24.11472,13.64526 24.56272,15.09986 24.56272,16.55586 C24.56272,17.67726 24.96872,18.65586 25.78072,19.49726 C26.59272,20.33586 27.55872,20.75586 28.67872,20.75586 C29.79872,20.75586 30.76472,20.33586 31.57672,19.49726 C32.38872,18.65586 32.79472,17.67726 32.79472,16.55586 C32.79472,14.37326 32.37472,12.27326 31.53472,10.25586 C30.91732,8.79986 30.10672,7.48526 29.09872,6.30926 C28.09072,5.13186 26.94272,4.09726 25.65472,3.19986 C22.96672,1.35186 19.97072,0.42786 16.66672,0.42786 L16.58272,0.42786 C14.34272,0.42786 12.27072,0.84786 10.36672,1.68786 C7.39872,2.86386 5.01872,4.82386 3.22672,7.56786 C2.27332,8.85726 1.57472,10.27126 1.12672,11.81126 C0.67872,13.34986 0.45472,14.93326 0.45472,16.55586 L0.45472,45.70246 C0.45472,47.88786 0.87472,49.98786 1.71472,52.00246 C2.33072,53.46126 3.14272,54.78986 4.15072,55.99386 C5.15872,57.19786 6.30532,58.24786 7.59472,59.14386 C10.39472,60.99046 13.41872,61.91586 16.66672,61.91586 C18.85072,61.91586 20.95072,61.49726 22.96672,60.65586 C25.87872,59.36786 28.22932,57.40926 30.02272,54.77586 C31.87072,52.08786 32.79472,49.06386 32.79472,45.70246 L32.79472,35.11986 C32.79472,33.99986 32.40272,33.04786 31.61872,32.26386 C30.83332,31.42386 29.85472,31.00246 28.67872,31.00246 L19.43872,31.00246 C18.31732,31.00246 17.35132,31.41126 16.54072,32.22326 C15.72872,33.03526 15.32272,33.99986 15.32272,35.11986 C15.32272,36.29726 15.72872,37.29126 16.54072,38.10186 C17.35132,38.91386 18.31732,39.31986 19.43872,39.31986 L23.05072,39.31986 C23.49872,39.31986 23.86132,39.46126 24.14272,39.73986 C24.42272,40.02126 24.56272,40.35726 24.56272,40.74786 L24.56272,45.70246 C24.56272,46.71186 24.33872,47.74786 23.89072,48.81186 C23.27332,50.26926 22.32272,51.41586 21.03472,52.25586 C19.74532,53.15186 18.29072,53.59986 16.66672,53.59986 C15.43472,53.59986 14.39872,53.40386 13.55872,53.01186 C12.21472,52.45326 11.03872,51.49986 10.03072,50.15586 C9.13472,48.69986 8.68672,47.21586 8.68672,45.70246 L8.68672,16.55586 C8.68672,15.54786 8.91072,14.53986 9.35872,13.53186"
                              id="Fill-92" fill="#280911"></path>
                        <g id="Group-96" transform="translate(40.600000, 0.400000)" fill="#280911">
                            <path d="M4.62756,0.11214 C3.50616,0.11214 2.54016,0.51954 1.72956,1.33014 C0.91756,2.14214 0.51156,3.10954 0.51156,4.22674 L0.51156,57.40014 C0.51156,58.57614 0.91756,59.57154 1.72956,60.38214 C2.54016,61.19554 3.50616,61.60014 4.62756,61.60014 C5.74756,61.60014 6.71216,61.19554 7.52416,60.38214 C8.33616,59.57154 8.74216,58.57614 8.74216,57.40014 L8.74216,4.22674 C8.74216,3.10954 8.33616,2.14214 7.52416,1.33014 C6.71216,0.51954 5.74756,0.11214 4.62756,0.11214"
                                  id="Fill-94"></path>
                        </g>
                        <path d="M86.21858,0.344 L59.42258,0.344 C58.30258,0.344 57.33518,0.75 56.52458,1.562 C55.71258,2.374 55.30658,3.34 55.30658,4.46 C55.30658,5.5814 55.71258,6.5474 56.52458,7.3594 C57.33518,8.1714 58.30258,8.576 59.42258,8.576 L67.23458,8.576 C67.68258,8.576 68.04658,8.716 68.32658,8.9974 C68.60658,9.2774 68.74798,9.64 68.74798,10.088 L68.74798,57.8 C68.74798,58.9214 69.15258,59.9 69.96598,60.74 C70.77658,61.58 71.74118,62 72.86258,62 C73.98258,62 74.96258,61.58 75.80398,60.74 C76.64258,59.9 77.06258,58.9214 77.06258,57.8 L77.06258,10.088 C77.06258,9.64 77.18858,9.2774 77.44058,8.9974 C77.69258,8.716 78.04118,8.576 78.49058,8.576 L86.21858,8.576 C87.33858,8.576 88.30458,8.1714 89.11658,7.3594 C89.92718,6.5474 90.33458,5.5814 90.33458,4.46 C90.33458,3.34 89.92718,2.374 89.11658,1.562 C88.30458,0.75 87.33858,0.344 86.21858,0.344"
                              id="Fill-97" fill="#280911"></path>
                        <path d="M131.74518,0.59684 C131.57718,0.54084 131.29718,0.51144 130.90518,0.51144 C130.12118,0.51144 129.37918,0.72284 128.68058,1.14144 C127.97918,1.56144 127.46118,2.16344 127.12518,2.94884 L116.45718,27.13944 C116.28918,27.47544 116.00918,27.64344 115.61718,27.64344 C115.16778,27.64344 114.91578,27.47544 114.86118,27.13944 L104.10918,2.94884 C103.38258,1.32484 102.12118,0.51144 100.33058,0.51144 C99.93858,0.51144 99.65858,0.54084 99.48918,0.59684 C98.53718,0.82084 97.75318,1.29684 97.13858,2.02484 C96.52118,2.75144 96.21458,3.61944 96.21458,4.62744 L96.21458,57.79944 C96.21458,58.97544 96.62058,59.97084 97.43258,60.78144 C98.24318,61.59484 99.20918,61.99944 100.33058,61.99944 C101.45058,61.99944 102.43058,61.59484 103.27058,60.78144 C104.10918,59.97084 104.53058,58.97544 104.53058,57.79944 L104.53058,28.39944 C104.53058,27.95144 104.75318,27.67284 105.20258,27.56084 C105.70658,27.44884 106.04258,27.61684 106.20918,28.06344 L111.83858,40.91544 C112.17458,41.64484 112.69118,42.23284 113.39258,42.68084 C114.09118,43.12884 114.83318,43.35144 115.61718,43.35144 C116.45718,43.35144 117.21318,43.12884 117.88658,42.68084 C118.55718,42.23284 119.06118,41.64484 119.39858,40.91544 L125.10918,28.06344 C125.27718,27.72744 125.53058,27.56084 125.86518,27.56084 L126.11718,27.56084 C126.56518,27.67284 126.78918,27.95144 126.78918,28.39944 L126.78918,57.79944 C126.78918,58.97544 127.19518,59.97084 128.00718,60.78144 C128.81778,61.59484 129.78518,61.99944 130.90518,61.99944 C132.02518,61.99944 133.00518,61.59484 133.84518,60.78144 C134.68658,59.97084 135.10518,58.97544 135.10518,57.79944 L135.10518,4.62744 C135.10518,3.61944 134.78318,2.75144 134.13918,2.02484 C133.49518,1.29684 132.69718,0.82084 131.74518,0.59684"
                              id="Fill-99" fill="#280911"></path>
                        <g id="Group-103" transform="translate(142.800000, 0.400000)">
                            <mask id="mask-4" fill="white">
                                <use xlink:href="#path-3"></use>
                            </mask>
                            <g id="Clip-102"></g>
                            <path d="M24.47704,29.26056 C24.47704,29.70856 24.33564,30.05856 24.05704,30.31056 C23.77564,30.56256 23.41164,30.68856 22.96504,30.68856 L10.19704,30.68856 C9.74904,30.68856 9.38504,30.56256 9.10504,30.31056 C8.82364,30.05856 8.68504,29.70856 8.68504,29.26056 L8.68504,16.23916 C8.68504,15.73656 8.72704,15.21996 8.81104,14.68656 C8.89504,14.15456 9.04904,13.66456 9.27304,13.21516 C9.88764,11.70316 10.83964,10.52716 12.12904,9.68856 C13.58504,8.79396 15.06904,8.34456 16.57964,8.34456 C17.58904,8.34456 18.62364,8.56856 19.68904,9.01516 C21.14364,9.63256 22.29164,10.58456 23.13304,11.87256 C24.02904,13.10456 24.47704,14.56056 24.47704,16.23916 L24.47704,29.26056 Z M25.65304,2.88456 C22.96504,1.03656 19.94104,0.11256 16.57964,0.11256 C14.39704,0.11256 12.29704,0.53116 10.27964,1.37256 C7.31164,2.54856 4.93164,4.50856 3.14104,7.25116 C2.24364,8.54056 1.55764,9.95456 1.08304,11.49456 C0.60564,13.03456 0.36904,14.61656 0.36904,16.23916 L0.36904,57.48456 C0.36904,58.60596 0.77364,59.57056 1.58564,60.38116 C2.39904,61.19596 3.36364,61.60056 4.48504,61.60056 C5.66104,61.60056 6.65504,61.19596 7.46704,60.38116 C8.27904,59.57056 8.68504,58.60596 8.68504,57.48456 L8.68504,40.51516 C8.68504,40.06856 8.82364,39.70596 9.10504,39.42456 C9.38504,39.14596 9.74904,39.00316 10.19704,39.00316 L22.96504,39.00316 C23.41164,39.00316 23.77564,39.14596 24.05704,39.42456 C24.33564,39.70596 24.47704,40.06856 24.47704,40.51516 L24.47704,57.48456 C24.47704,58.60596 24.88164,59.57056 25.69504,60.38116 C26.50564,61.19596 27.47304,61.60056 28.59164,61.60056 C29.76904,61.60056 30.76164,61.19596 31.57504,60.38116 C32.38564,59.57056 32.79164,58.60596 32.79164,57.48456 L32.79164,16.23916 C32.79164,14.16996 32.34364,12.06996 31.44764,9.93916 C30.27304,7.02856 28.34104,4.67656 25.65304,2.88456 L25.65304,2.88456 Z"
                                  id="Fill-101" fill="#280911" mask="url(#mask-4)"></path>
                        </g>
                        <path d="M214.98778,10.256 C213.81178,7.3454 211.87978,4.9934 209.19178,3.2 C206.50238,1.352 203.47978,0.4266 200.11978,0.4266 C197.93578,0.4266 195.83578,0.848 193.81978,1.688 C190.85178,2.864 188.47178,4.824 186.67978,7.568 C185.78378,8.8574 185.09638,10.2714 184.62178,11.81 C184.14578,13.35 183.90778,14.9334 183.90778,16.556 L183.90778,57.8854 C183.90778,59.0054 184.31378,59.9714 185.12578,60.782 C185.93638,61.5954 186.90238,62 188.02378,62 C189.19978,62 190.19378,61.5954 191.00578,60.782 C191.81638,59.9714 192.22378,59.0054 192.22378,57.8854 L192.22378,16.556 C192.22378,16.052 192.26578,15.5354 192.34978,15.002 C192.43378,14.4714 192.58778,13.9814 192.81178,13.532 C193.42778,12.02 194.37838,10.844 195.66778,10.0026 C197.12238,9.1094 198.60778,8.66 200.11978,8.66 C201.12778,8.66 202.16378,8.8854 203.22778,9.332 C204.68378,9.948 205.83178,10.9 206.67178,12.188 C207.56638,13.4214 208.01578,14.876 208.01578,16.556 L208.01578,57.8854 C208.01578,59.0054 208.43578,59.9714 209.27578,60.782 C210.11578,61.5954 211.09578,62 212.21578,62 C213.33438,62 214.30178,61.5954 215.11378,60.782 C215.92438,59.9714 216.33178,59.0054 216.33178,57.8854 L216.33178,16.556 C216.33178,14.4854 215.88378,12.3854 214.98778,10.256"
                              id="Fill-104" fill="#280911"></path>
                    </g>
                </g>
            </g>
        </g>
    </g>
</svg>