<?xml version="1.0" encoding="UTF-8"?>
<svg width="188px" height="88px" viewBox="0 0 188 88" version="1.1" xmlns="http://www.w3.org/2000/svg" xmlns:xlink="http://www.w3.org/1999/xlink">
    <!-- Generator: Sketch 47.1 (45422) - http://www.bohemiancoding.com/sketch -->
    <title>Group 13</title>
    <desc>Created with Sketch.</desc>
    <defs>
        <polygon id="path-1" points="0.187980098 30.3111111 16.7032725 30.3111111 16.7032725 0.0553866667 0.187980098 0.0553866667"></polygon>
        <polygon id="path-3" points="75.9831546 87.7582883 75.9831546 0.135441333 3.6848832e-05 0.135441333 3.6848832e-05 87.7582883"></polygon>
    </defs>
    <g id="Page-1" stroke="none" stroke-width="1" fill="none" fill-rule="evenodd">
        <g id="Artboard" transform="translate(-21.000000, -11.000000)">
            <g id="Group-13" transform="translate(21.000000, 11.000000)">
                <g id="Page-1" transform="translate(76.000000, 20.000000)">
                    <g id="Group-106">
                        <path d="M4.61104503,6.60655738 C4.93004815,5.8442623 5.42305296,5.25136612 6.09005947,4.82716302 C6.43806287,4.60270947 6.80056641,4.43331056 7.17757009,4.32037796 C7.55457378,4.20744536 7.96057774,4.15097905 8.39558199,4.15097905 C8.91758709,4.15097905 9.43959218,4.26391166 9.96159728,4.48907104 C10.6576041,4.77140255 11.26661,5.25136612 11.7886151,5.92896175 C12.2526197,6.66372951 12.4846219,7.39708561 12.4846219,8.13114754 C12.4846219,8.69651639 12.694874,9.18989071 13.1153781,9.61409381 C13.5358822,10.0368852 14.0361371,10.2486339 14.6161427,10.2486339 C15.1961484,10.2486339 15.6964033,10.0368852 16.1169074,9.61409381 C16.5374115,9.18989071 16.7476636,8.69651639 16.7476636,8.13114754 C16.7476636,7.03076047 16.5301614,5.9720173 16.0951572,4.95491803 C15.7754291,4.2208561 15.35565,3.55808288 14.8336449,2.9651867 C14.3116398,2.3715847 13.717134,1.84997723 13.0501274,1.39754098 C11.6581138,0.465846995 10.1065987,0 8.39558199,0 L8.35208156,0 C7.19207024,0 6.11905976,0.211748634 5.13305013,0.635245902 C3.59603512,1.22814208 2.36352308,2.21630237 1.43551402,3.59972678 C0.941784197,4.24979508 0.580005664,4.96268215 0.348003398,5.73909381 C0.116001133,6.51479964 0,7.31309199 0,8.13114754 L0,22.8257969 C0,23.9275956 0.217502124,24.9863388 0.652506372,26.0020264 C0.971509487,26.7375 1.39201359,27.4073315 1.91401869,28.0143443 C2.43602379,28.621357 3.02980459,29.1507286 3.69753611,29.602459 C5.14755027,30.5334472 6.71356556,31 8.39558199,31 C9.52659303,31 10.6141037,30.7889572 11.6581138,30.3647541 C13.1661286,29.7153916 14.3834155,28.7279372 15.3121495,27.4002732 C16.2691589,26.045082 16.7476636,24.5204918 16.7476636,22.8257969 L16.7476636,17.4904372 C16.7476636,16.9257741 16.5446616,16.4458106 16.1386576,16.0505464 C15.7319286,15.6270492 15.2251487,15.4145947 14.6161427,15.4145947 L9.83109601,15.4145947 C9.25036534,15.4145947 8.75011045,15.6206967 8.33033135,16.0300774 C7.90982724,16.4394581 7.69957519,16.9257741 7.69957519,17.4904372 C7.69957519,18.0840392 7.90982724,18.5851776 8.33033135,18.9938525 C8.75011045,19.4032332 9.25036534,19.6079235 9.83109601,19.6079235 L11.7016143,19.6079235 C11.9336165,19.6079235 12.1213934,19.6792122 12.2671198,19.8196721 C12.4121212,19.9615437 12.4846219,20.1309426 12.4846219,20.3278689 L12.4846219,22.8257969 C12.4846219,23.3346995 12.3686208,23.8570128 12.1366185,24.3934426 C11.8168904,25.1282104 11.3246106,25.7062842 10.6576041,26.1297814 C9.98987256,26.5815118 9.2365902,26.807377 8.39558199,26.807377 C7.75757576,26.807377 7.22107052,26.708561 6.78606627,26.510929 C6.09005947,26.2293033 5.48105353,25.7486339 4.95904843,25.0710383 C4.4950439,24.3369763 4.26304163,23.5887978 4.26304163,22.8257969 L4.26304163,8.13114754 C4.26304163,7.62295082 4.37904276,7.1147541 4.61104503,6.60655738"
                              id="Fill-92" fill="#FFFFFF"></path>
                        <g id="Group-96" transform="translate(20.934579, 0.000000)" fill="#FFFFFF">
                            <path d="M2.45538306,0.05518 C1.86036828,0.05518 1.34780874,0.255646667 0.917704432,0.654513333 C0.486857281,1.05406889 0.271433705,1.53009111 0.271433705,2.07982444 L0.271433705,28.2445133 C0.271433705,28.82318 0.486857281,29.31298 0.917704432,29.7118467 C1.34780874,30.1120911 1.86036828,30.31118 2.45538306,30.31118 C3.04965499,30.31118 3.56147169,30.1120911 3.99231884,29.7118467 C4.42316599,29.31298 4.63858957,28.82318 4.63858957,28.2445133 L4.63858957,2.07982444 C4.63858957,1.53009111 4.42316599,1.05406889 3.99231884,0.654513333 C3.56147169,0.255646667 3.04965499,0.05518 2.45538306,0.05518"
                                  id="Fill-94"></path>
                        </g>
                        <path d="M43.965127,0 L30.35263,0 C29.7836647,0 29.2922208,0.204132607 28.8804321,0.61239782 C28.4679322,1.02066303 28.2616822,1.50635786 28.2616822,2.06948229 C28.2616822,2.63331063 28.4679322,3.11900545 28.8804321,3.52727066 C29.2922208,3.93553588 29.7836647,4.13896458 30.35263,4.13896458 L34.3211636,4.13896458 C34.5487498,4.13896458 34.7336635,4.20935513 34.8759049,4.35084015 C35.0181462,4.49162125 35.0899781,4.67393279 35.0899781,4.89918256 L35.0899781,28.8882834 C35.0899781,29.4521117 35.2955169,29.9441417 35.708728,30.366485 C36.1205167,30.7888283 36.6105381,31 37.1802147,31 C37.7491801,31 38.2470248,30.7888283 38.6744601,30.366485 C39.1004729,29.9441417 39.3138349,29.4521117 39.3138349,28.8882834 L39.3138349,4.89918256 C39.3138349,4.67393279 39.3778435,4.49162125 39.5058607,4.35084015 C39.6338779,4.20935513 39.8109684,4.13896458 40.0392658,4.13896458 L43.965127,4.13896458 C44.5340924,4.13896458 45.024825,3.93553588 45.4373249,3.52727066 C45.8491136,3.11900545 46.0560748,2.63331063 46.0560748,2.06948229 C46.0560748,1.50635786 45.8491136,1.02066303 45.4373249,0.61239782 C45.024825,0.204132607 44.5340924,0 43.965127,0"
                              id="Fill-97" fill="#FFFFFF"></path>
                        <path d="M67.3658775,0.0430555556 C67.2799657,0.0148224044 67.1367795,0 66.9363188,0 C66.5353974,0 66.1559539,0.106580146 65.7987043,0.317622951 C65.4400228,0.529371585 65.1751283,0.83287796 65.0033048,1.22884791 L59.5479097,13.4248634 C59.461998,13.5942623 59.3188117,13.6789617 59.118351,13.6789617 C58.8885371,13.6789617 58.7596695,13.5942623 58.7317482,13.4248634 L53.2333972,1.22884791 C52.861829,0.410086521 52.2167751,0 51.3010992,0 C51.1006385,0 50.9574522,0.0148224044 50.8708246,0.0430555556 C50.3839914,0.15598816 49.98307,0.395969945 49.6687762,0.763000911 C49.3530506,1.12932605 49.1962617,1.56693989 49.1962617,2.07513661 L49.1962617,28.8825137 C49.1962617,29.4754098 49.4038817,29.9772541 49.8191218,30.385929 C50.2336459,30.7960155 50.7276383,31 51.3010992,31 C51.8738441,31 52.3749958,30.7960155 52.8045545,30.385929 C53.2333972,29.9772541 53.4488925,29.4754098 53.4488925,28.8825137 L53.4488925,14.0601093 C53.4488925,13.8342441 53.5627256,13.6937842 53.7925394,13.6373179 C54.0502746,13.5808515 54.2220981,13.665551 54.3072939,13.8907104 L57.1860529,20.3702186 C57.3578764,20.7379554 57.622055,21.0344035 57.9807365,21.2602687 C58.3379861,21.4861339 58.7174296,21.5983607 59.118351,21.5983607 C59.5479097,21.5983607 59.9345125,21.4861339 60.2788754,21.2602687 C60.6218064,21.0344035 60.8795416,20.7379554 61.052081,20.3702186 L63.972364,13.8907104 C64.0582757,13.7213115 64.1878592,13.6373179 64.3589668,13.6373179 L64.4878344,13.6373179 C64.7169323,13.6937842 64.8314813,13.8342441 64.8314813,14.0601093 L64.8314813,28.8825137 C64.8314813,29.4754098 65.0391013,29.9772541 65.4543414,30.385929 C65.8688655,30.7960155 66.3635739,31 66.9363188,31 C67.5090637,31 68.0102155,30.7960155 68.4397741,30.385929 C68.8700487,29.9772541 69.0841121,29.4754098 69.0841121,28.8825137 L69.0841121,2.07513661 C69.0841121,1.56693989 68.919448,1.12932605 68.5901197,0.763000911 C68.2607914,0.395969945 67.8527106,0.15598816 67.3658775,0.0430555556"
                              id="Fill-99" fill="#FFFFFF"></path>
                        <g id="Group-103" transform="translate(73.271028, 0.000000)">
                            <mask id="mask-2" fill="white">
                                <use xlink:href="#path-1"></use>
                            </mask>
                            <g id="Clip-102"></g>
                            <path d="M12.4680153,14.3980533 C12.4680153,14.6184978 12.3959896,14.79072 12.2540774,14.91472 C12.110739,15.03872 11.9253262,15.10072 11.6978389,15.10072 L5.19412686,15.10072 C4.96592643,15.10072 4.78051359,15.03872 4.63788833,14.91472 C4.49454994,14.79072 4.42395043,14.6184978 4.42395043,14.3980533 L4.42395043,7.99069778 C4.42395043,7.74338667 4.44534422,7.48918667 4.4881318,7.22672 C4.53091938,6.96494222 4.60936328,6.72383111 4.72346349,6.50269778 C5.03652594,5.75869778 5.52145184,5.18003111 6.17824118,4.76738667 C6.91989255,4.32718667 7.67580645,4.10605333 8.44526974,4.10605333 C8.95943382,4.10605333 9.48643417,4.21627556 10.0291233,4.43603111 C10.7700615,4.73983111 11.3548251,5.20827556 11.783414,5.84205333 C12.2398149,6.44827556 12.4680153,7.16472 12.4680153,7.99069778 L12.4680153,14.3980533 Z M13.0670414,1.41938667 C11.6978389,0.510053333 10.157486,0.0553866667 8.44526974,0.0553866667 C7.33350581,0.0553866667 6.26381634,0.261364444 5.23620131,0.675386667 C3.72437351,1.25405333 2.51205877,2.21849778 1.59997021,3.56803111 C1.14285624,4.20249778 0.793424342,4.89827556 0.55167452,5.65605333 C0.308498446,6.41383111 0.187980098,7.19227556 0.187980098,7.99069778 L0.187980098,28.2860533 C0.187980098,28.8378533 0.394073604,29.3124978 0.807686869,29.7113644 C1.22201326,30.1122978 1.71335729,30.3113867 2.28457148,30.3113867 C2.88359758,30.3113867 3.38991727,30.1122978 3.80353053,29.7113644 C4.2171438,29.3124978 4.42395043,28.8378533 4.42395043,28.2860533 L4.42395043,19.9360311 C4.42395043,19.7162756 4.49454994,19.5378533 4.63788833,19.3993867 C4.78051359,19.2622978 4.96592643,19.1920311 5.19412686,19.1920311 L11.6978389,19.1920311 C11.9253262,19.1920311 12.110739,19.2622978 12.2540774,19.3993867 C12.3959896,19.5378533 12.4680153,19.7162756 12.4680153,19.9360311 L12.4680153,28.2860533 C12.4680153,28.8378533 12.6741088,29.3124978 13.0884352,29.7113644 C13.5013353,30.1122978 13.9941056,30.3113867 14.5638936,30.3113867 C15.1636328,30.3113867 15.6692394,30.1122978 16.0835657,29.7113644 C16.4964659,29.3124978 16.7032725,28.8378533 16.7032725,28.2860533 L16.7032725,7.99069778 C16.7032725,6.97252 16.4750721,5.93918667 16.0186713,4.89069778 C15.4203583,3.45849778 14.436244,2.30116444 13.0670414,1.41938667 L13.0670414,1.41938667 Z"
                                  id="Fill-101" fill="#FFFFFF" mask="url(#mask-2)"></path>
                        </g>
                        <path d="M111.305796,4.9487506 C110.698368,3.48336782 109.70045,2.29922012 108.312043,1.3963075 C106.922913,0.465905732 105.361677,0 103.626168,0 C102.498087,0 101.413394,0.212159796 100.372089,0.635069689 C98.8390554,1.22714354 97.6097364,2.21393329 96.6841315,3.59543894 C96.2213291,4.24460563 95.8662728,4.95650394 95.6211321,5.7311339 C95.3752683,6.5064687 95.2523364,7.30365385 95.2523364,8.12057479 L95.2523364,28.9284464 C95.2523364,29.4923262 95.4620438,29.9786726 95.8814585,30.3867807 C96.3001501,30.7962984 96.799109,31 97.3783352,31 C97.9857634,31 98.4991849,30.7962984 98.9185996,30.3867807 C99.3372912,29.9786726 99.5477217,29.4923262 99.5477217,28.9284464 L99.5477217,8.12057479 C99.5477217,7.86682886 99.5694155,7.60673927 99.6128033,7.33819149 C99.656191,7.07105341 99.7357352,6.82435597 99.8514358,6.59809918 C100.169612,5.83686137 100.660617,5.24478752 101.326619,4.82117278 C102.077949,4.37147859 102.845189,4.1452218 103.626168,4.1452218 C104.146821,4.1452218 104.681936,4.25870262 105.231514,4.48354971 C105.983568,4.79368364 106.576534,5.27298151 107.010411,5.92144335 C107.47249,6.54241604 107.704615,7.27475501 107.704615,8.12057479 L107.704615,28.9284464 C107.704615,29.4923262 107.921553,29.9786726 108.355431,30.3867807 C108.789308,30.7962984 109.295498,31 109.874001,31 C110.451781,31 110.951463,30.7962984 111.370878,30.3867807 C111.78957,29.9786726 112,29.4923262 112,28.9284464 L112,8.12057479 C112,7.07810191 111.768599,6.02082718 111.305796,4.9487506"
                              id="Fill-104" fill="#FFFFFF"></path>
                    </g>
                </g>
                <g id="Group-4">
                    <g id="Group-75" transform="translate(1.000000, 0.000000)">
                        <path d="M73.9833555,44.3535581 C73.9833555,64.8887761 57.4426513,81.5358957 37.0387033,81.5358957 C16.6347552,81.5358957 0.0940510491,64.8887761 0.0940510491,44.3535581 C0.0940510491,23.8183401 16.6347552,7.17122047 37.0387033,7.17122047 C57.4426513,7.17122047 73.9833555,23.8183401 73.9833555,44.3535581"
                              id="Fill-1" fill="#280911"></path>
                        <polygon id="Fill-3" fill="#FFFFFF"
                                 points="39.7609408 49.0502744 37.8164854 60.7920653 36.7237015 64.6042333 30.427555 67.0543537 24.5941888 65.4887816 24.5941888 60.7920653 25.0958583 52.7058853 25.371971 48.2674884 26.1264197 48.6001724 27.7480955 49.801749 28.6775451 50.4906008 29.6497728 51.3986326 33.4725721 51.5317062 33.9275746 51.0072396"></polygon>
                        <path d="M13.7052387,16.5646531 C13.7052387,16.5646531 13.7052387,7.5626135 21.8719513,2.47450414 C30.0386639,-2.61360522 38.5942676,2.47450414 38.5942676,2.47450414 C38.5942676,2.47450414 45.5943069,6.77982744 46.3720891,13.4335089 C47.1498712,20.0871904 46.7609802,20.0871904 46.7609802,20.0871904 L49.0943266,20.4785834 C49.0943266,20.4785834 51.4276731,22.4355485 51.038782,24.7839067 C50.6498909,27.1322649 48.7054355,28.306444 48.7054355,28.306444 L46.7609802,28.697837 L46.7609802,34.1773394 C46.7609802,34.1773394 45.983198,38.8740557 41.7053962,41.6138069 L42.0942872,42.787986 L44.8165248,45.1363442 L39.7609408,48.2674884 L35.87203,50.2244535 L34.3164657,51.3986326 L31.5942282,51.3986326 L30.0386639,51.0072396 L26.9275353,48.6588814 L24.2052978,48.2674884 L21.8719513,48.2674884 C21.8719513,48.2674884 15.260803,44.7449511 15.260803,40.0482348 L15.260803,22.4355485 L13.7052387,16.5646531 Z"
                              id="Fill-5" fill="#FFE3B4"></path>
                        <polygon id="Fill-7" fill="#E26058"
                                 points="28.4830996 53.7469908 28.5418221 53.9043308 29.6497728 56.878135 28.8719907 66.6629607 30.427555 67.0543537 34.001464 65.6261605 33.1497925 57.269528 34.3164657 53.7469908 33.1497925 51.3986326 30.0386639 51.3986326"></polygon>
                        <path d="M10.8835228,70.3811944 L10.2052968,74.0994282 C10.2052968,74.0994282 7.87195034,82.3186818 13.3164254,84.2756469 C13.3164254,84.2756469 16.427554,85.058433 21.0942469,83.1014678 C25.7609398,81.1445027 27.4693383,80.2243377 27.4693383,80.2243377 L20.2511311,76.9311567 L20.3164648,75.6650003 L20.7053558,74.8822142 L10.8835228,70.3811944 Z"
                              id="Fill-9" fill="#8E674A"></path>
                        <path d="M26.5386442,48.2674884 L31.2053371,48.2674884 L34.7053568,46.3105232 L41.4063389,42.1738903 C41.4063389,42.1738903 42.4831783,45.1363442 44.4276337,44.7449511 L40.3073327,48.2674884 L36.4191998,50.0326709 L33.4714054,51.5328804 L29.6497728,51.3986326 L26.5386442,48.2674884 Z"
                              id="Fill-11" fill="#DCA486"></path>
                        <path d="M46.3720891,20.0871904 L45.9847536,20.130635 C45.9894203,18.6691734 46.0096426,15.4589678 46.0948097,14.4170796 C46.2064215,13.0522921 44.6493016,9.29844158 44.6493016,9.29844158 C41.7598409,3.20601771 34.3164657,0.920673819 34.3164657,0.920673819 C41.3056161,5.32580234 41.7532298,14.3145346 41.5370063,18.5533211 C41.4755615,19.7560719 40.5616675,20.7369028 39.3720497,20.8699764 L34.7053568,20.0871904 L30.0386639,22.0441555 L30.0386639,24.713456 C30.0386639,26.2653293 31.2889487,27.5236579 32.8309018,27.5236579 L35.2109152,27.5236579 C38.367933,27.5236579 40.927614,30.0998068 40.927614,33.2771354 L40.927614,33.2775268 C40.927614,36.4176731 39.8721636,39.4685817 37.9109859,41.9108742 C36.4226998,43.7641202 34.3452437,45.92187 31.5942282,47.8760953 L41.7053962,41.575059 C41.7053962,41.575059 41.3165051,41.2224139 43.8442971,39.3750388 C46.3720891,37.5276637 46.3720891,31.4375882 46.3720891,31.4375882 L46.3720891,28.306444 L47.4812064,28.3718066 C47.4812064,28.3718066 50.2609998,27.9150509 50.2609998,24.0011207 C50.2609998,20.0871904 46.3720891,20.0871904 46.3720891,20.0871904"
                              id="Fill-13" fill="#DCA486"></path>
                        <path d="M14.8719119,20.4785834 C14.8719119,20.4785834 20.7052781,19.3044043 23.8164067,22.0441555 L22.6497334,25.9580858 L19.9274959,24.3925137 L17.9830405,24.0011207 L15.260803,24.7839067 L15.260803,22.4355485 L14.8719119,20.4785834 Z"
                              id="Fill-15" fill="#DCA486"></path>
                        <path d="M27.899763,42.787986 L24.7886344,42.787986 C24.2515758,42.787986 23.8164067,42.3500172 23.8164067,41.8095034 C23.8164067,41.2689896 24.2515758,40.8310208 24.7886344,40.8310208 L27.899763,40.8310208 C28.4368215,40.8310208 28.8719907,41.2689896 28.8719907,41.8095034 C28.8719907,42.3500172 28.4368215,42.787986 27.899763,42.787986"
                              id="Fill-17" fill="#DCA486"></path>
                        <path d="M23.4275156,31.4375882 L29.4553273,31.4375882 C29.9923859,31.4375882 30.427555,31.875557 30.427555,32.4160708 C30.427555,32.9565845 29.9923859,33.3945533 29.4553273,33.3945533 L24.3997433,33.3945533 C23.8626847,33.3945533 23.4275156,32.9565845 23.4275156,32.4160708 L23.4275156,31.4375882 Z"
                              id="Fill-19" fill="#DCA486"></path>
                        <path d="M21.0941691,73.974065 L19.9274959,76.839062 C19.9274959,76.839062 12.1496744,77.621848 9.03854579,76.0562759 L10.5941101,69.4025944 L14.8719119,70.8303962 L21.0941691,73.974065 Z"
                              id="Fill-21" fill="#774C3F"></path>
                        <polygon id="Fill-23" fill="#B62C36"
                                 points="29.7149121 57.2018562 33.1845982 57.2018562 33.5941006 62.0202957 29.4854663 59.972136"></polygon>
                        <polygon id="Fill-25" fill="#B62C36"
                                 points="33.9275746 65.4887816 29.1286588 63.9232095 28.4830996 66.6629607 30.427555 67.4457467 33.6125729 65.6805642"></polygon>
                        <polygon id="Fill-27" fill="#B62C36"
                                 points="29.6497728 52.9642047 33.9275746 54.9211698 34.3164657 53.7469908 32.9254023 51.5328804 30.0386639 51.3986326"></polygon>
                        <path d="M28.4830996,53.7469908 L29.6497728,56.878135 C29.6497728,56.878135 26.9275353,58.0523141 26.5386442,60.4006722 C26.1497531,62.7490304 25.7608621,65.801896 25.7608621,65.801896 L23.4275156,65.1713618 L25.7608621,54.5297768 L26.5386442,54.5297768 L27.3164264,54.9211698 L28.4830996,53.7469908 Z"
                              id="Fill-29" fill="#C4D5D7"></path>
                        <path d="M36.2609211,56.878135 L40.1498319,54.9211698 L40.1498319,59.2264931 L38.5942676,63.9232095 L36.6498122,64.7059955 C36.6498122,64.7059955 36.6498122,61.5748513 37.4275943,60.0092792 C38.2053765,58.4437071 36.2609211,56.878135 36.2609211,56.878135"
                              id="Fill-31" fill="#C4D5D7"></path>
                        <polygon id="Fill-33" fill="#FDFDFD"
                                 points="43.6536627 46.3848488 43.0858817 48.5844776 42.4831005 51.0072004 40.5386452 52.5727725 40.1497541 54.1383446 39.760863 54.9211307 37.7312405 55.9974615 37.1591817 56.2988342 34.4602776 50.7880203 39.5434729 48.169601 41.7442075 47.0384751"></polygon>
                        <path d="M26.5386442,51.7900256 C25.8541959,53.3438559 26.5736444,55.1638335 27.3164264,56.486742 L25.0958583,52.7058853 L25.371971,48.2674884 L26.1264197,48.6001724 L27.7480955,49.801749 C27.6197614,50.0874659 27.4719828,50.3614411 27.3164264,50.6158465 C26.939202,51.2303336 26.7564232,51.3007843 26.5386442,51.7900256"
                              id="Fill-35" fill="#C4D5D7"></path>
                        <path d="M43.6536627,46.3848488 L43.0858817,48.5844776 L42.4831005,51.0072004 L40.5386452,52.5727725 L40.1497541,54.1383446 L39.760863,54.9211307 L37.7312405,55.9974615 C37.5519617,54.9328725 37.6880736,53.5982223 38.2052987,52.5727725 C38.9169694,51.1676716 40.0253089,50.975889 40.1497541,49.8330213 C40.2240323,49.179395 39.9241973,48.6392726 39.5434729,48.169601 L41.7442075,47.0384751 L43.6536627,46.3848488 Z"
                              id="Fill-37" fill="#C4D5D7"></path>
                        <path d="M40.1498319,56.0953489 L43.2391826,55.807675 L49.0943266,54.9211698 L49.4832177,58.4437071 L45.2054158,59.2264931 L44.8165248,58.8351001 L45.2054158,57.269528 L45.4375838,56.2988733 C45.4375838,56.2988733 43.2609605,54.9211698 42.4831783,56.486742 C41.7053962,58.0523141 40.6550014,59.2264931 40.6550014,59.2264931 L40.1498319,56.0953489 Z"
                              id="Fill-39" fill="#C4D5D7"></path>
                        <polygon id="Fill-41" fill="#280911"
                                 points="42.0942872 70.5768909 46.0660318 69.1913596 45.5943069 70.1854979 45.983198 71.359677"></polygon>
                        <path d="M9.03854579,36.9170906 L14.8719119,36.1343045 L14.8719119,39.2654487 C14.8719119,39.2654487 15.364248,42.5844616 17.8403175,45.2302785 C20.316387,47.8760953 21.6775058,48.0130829 21.6775058,48.0130829 L25.371971,48.2674884 L26.1497531,49.0502744 L26.9275353,58.4437071 L27.9347632,66.4590449 L23.4275156,65.4887816 L22.6497334,67.0543537 L14.4732986,71.2215153 L13.7052387,71.75107 L9.03854579,36.9170906 Z"
                              id="Fill-43" fill="#FFFFFF"></path>
                        <path d="M16.0385852,59.6178862 C16.0385852,59.6178862 19.5386048,55.3125629 18.7608227,51.3986326 C17.9830405,47.4847023 9.96099543,43.9484663 9.96099543,43.9484663 L9.70821623,41.4705571 C9.70821623,41.4705571 11.8650061,38.4478287 11.7607833,36.5256975 L14.8719119,36.1343045 L14.8719119,40.8310208 L18.4823767,45.8858618 L21.8902292,48.0130829 L25.8495292,48.5038898 L28.0942085,66.2715676 L23.4275156,65.0973886 L23.0386245,66.2715676 L22.2608424,67.0543537 L17.5941495,63.9232095 L16.0385852,59.6178862 Z"
                              id="Fill-45" fill="#C4D5D7"></path>
                        <polygon id="Fill-47" fill="#280911" points="17.8402397 45.2303568 19.5385271 47.0933876 17.9829628 47.0933876"></polygon>
                        <path d="M24.664267,67.4457467 L24.5942666,68.38509 L24.5009327,69.6062362 L23.4275934,72.9252491 L22.2648091,74.5925834 C22.2648091,74.5925834 16.427554,72.1424631 11.7608611,69.7941049 C7.09416819,67.4457467 8.26084142,64.7059955 8.26084142,64.7059955 C8.26084142,64.7059955 8.59528775,64.0327995 8.60695448,63.0187002 C8.61084339,62.4867971 8.52917626,61.8566543 8.26084142,61.1834583 C7.48305927,59.2264931 9.42751465,58.8351001 9.42751465,58.8351001 L11.7608611,59.6178862 L13.7053165,59.6178862 C13.7053165,59.6178862 11.7608611,58.0523141 13.7053165,56.486742 C15.6497719,54.9211698 16.8164451,58.8351001 16.8164451,58.8351001 L17.9831183,61.5748513 L19.5386826,64.3146025 L22.0003631,66.0093343 L24.664267,67.4457467 Z"
                              id="Fill-49" fill="#FFE3B4"></path>
                        <path d="M24.5941888,68.3852465 L24.500855,69.6060014 L23.4275156,72.9254057 L22.2647313,74.5923486 C22.2647313,74.5923486 16.4274762,72.1426196 11.7607833,69.7942614 C7.09409041,67.4459033 8.26076364,64.7061521 8.26076364,64.7061521 C8.26076364,64.7061521 8.59520997,64.0329561 8.6068767,63.0188567 C10.7691111,64.5887342 12.6280104,65.7824829 14.0941298,66.6631172 C16.7735893,68.2756565 18.1735972,68.8784018 19.9274959,69.0114754 C22.0080632,69.1719465 23.497516,68.5922935 24.5941888,68.3852465"
                              id="Fill-51" fill="#DCA486"></path>
                        <path d="M61.14995,50.2244535 C61.14995,50.2244535 61.2121725,50.3027321 61.321062,50.4553754 C62.1221776,51.5473619 65.4277518,56.3650187 65.4277518,61.1834583 C65.4277518,66.6629607 60.3721678,72.5338561 60.3721678,72.5338561 L49.8721088,83.8842539 L47.5387623,86.2326121 C47.5387623,86.2326121 44.4276337,88.1895772 38.9831586,85.449826 C33.5386836,82.7100748 22.2608424,78.0133585 22.2608424,78.0133585 L19.9274959,76.8391794 L21.0941691,74.8822142 L21.5725052,73.43406 L22.6847336,70.0602521 L23.4275156,65.4887816 L29.334771,66.7608089 L37.7931519,69.2070153 L42.4831783,70.5768909 L47.0682041,68.8038805 C47.0682041,68.8038805 49.8643309,68.2363606 49.8682198,64.1228199 L49.4832177,61.9662443 L50.2609998,60.7920653 L50.2609998,58.8351001 L47.5387623,58.4437071 L45.2131937,59.2225792 C45.3648612,59.1443006 48.2854332,57.5591588 47.1498712,53.7469908 L45.983198,52.1814186 L44.4276337,51.3986326 L42.4831783,51.0072396 L44.0387426,44.7449511 C44.0387426,44.7449511 45.2054158,43.9621651 48.3165445,45.1363442 C51.4276731,46.3105232 52.2054552,45.9191302 52.2054552,45.9191302 L61.14995,50.2244535 Z"
                              id="Fill-53" fill="#8E674A"></path>
                        <path d="M21.6775058,72.9129985 L42.3412331,81.811319 C43.5887956,82.3487016 45.0374149,82.0265852 45.94392,81.0105289 L58.8022145,66.5990462 C60.6023913,64.5814151 62.8404595,63.0076238 65.3418069,62.0005695 L65.4277518,61.9661269 L64.6853587,65.128974 L61.1845613,71.2711048 L51.2678388,82.7099574 L47.5387623,86.2324946 L44.4276337,86.9049079 L41.7053962,86.5487402 L20.316387,76.839062 L20.316387,75.2734899 L21.6775058,72.9129985 Z"
                              id="Fill-55" fill="#774C3F"></path>
                        <path d="M26.5386442,74.2951247 C26.5386442,74.8356385 26.1034751,75.2736073 25.5664165,75.2736073 C25.0293579,75.2736073 24.5941888,74.8356385 24.5941888,74.2951247 C24.5941888,73.7546109 25.0293579,73.3166421 25.5664165,73.3166421 C26.1034751,73.3166421 26.5386442,73.7546109 26.5386442,74.2951247"
                              id="Fill-57" fill="#280911"></path>
                        <path d="M29.2608817,75.4693038 C29.2608817,76.0098176 28.8257126,76.4477864 28.288654,76.4477864 C27.7515955,76.4477864 27.3164264,76.0098176 27.3164264,75.4693038 C27.3164264,74.92879 27.7515955,74.4908212 28.288654,74.4908212 C28.8257126,74.4908212 29.2608817,74.92879 29.2608817,75.4693038"
                              id="Fill-59" fill="#280911"></path>
                        <path d="M31.9831193,76.6434829 C31.9831193,77.1839966 31.5479502,77.6219654 31.0108916,77.6219654 C30.473833,77.6219654 30.0386639,77.1839966 30.0386639,76.6434829 C30.0386639,76.1029691 30.473833,75.6650003 31.0108916,75.6650003 C31.5479502,75.6650003 31.9831193,76.1029691 31.9831193,76.6434829"
                              id="Fill-61" fill="#280911"></path>
                        <path d="M40.6424013,59.8368706 L40.1496763,55.7037602 C40.1496763,55.7037602 39.7607852,51.0070439 44.0385871,50.6156508 C48.3163889,50.2242578 49.0941711,54.1381881 49.0941711,54.1381881 L49.5841738,59.2262974 L42.8719138,61.1832626 L40.6424013,59.8368706 Z"
                              id="Fill-63" fill="#FFFFFF"></path>
                        <path d="M30.427555,67.0543537 L38.5942676,63.5318164 L39.7609408,61.9662443 L41.7053962,57.269528 C41.7053962,57.269528 43.2609605,54.9211698 44.8165248,55.7039559 C46.3720891,56.486742 45.2054158,58.8351001 45.2054158,58.8351001 L47.9276534,58.8351001 C47.9276534,58.8351001 50.6498909,58.4437071 50.2609998,60.7920653 C49.8721088,63.1404234 49.8721088,63.5318164 49.8721088,63.5318164 L49.4832177,66.6629607 L47.5387623,68.6199258 L42.4831783,70.5768909 L30.427555,67.0543537 Z"
                              id="Fill-65" fill="#FFE3B4"></path>
                        <path d="M36.6498122,69.0113188 L41.2783938,67.7068059 C44.5773568,66.7772474 47.4679841,64.7545283 49.4832177,61.9662443 L49.8052195,65.1290914 C49.8052195,65.1290914 50.2609998,67.0543537 47.1498712,68.6199258 C44.0387426,70.1854979 41.9620643,70.5768909 41.9620643,70.5768909 L36.6498122,69.0113188 Z"
                              id="Fill-67" fill="#DCA486"></path>
                        <polygon id="Fill-69" fill="#C4D5D7"
                                 points="11.3718922 72.5338561 15.8441396 71.7538098 13.3497923 70.5768909 10.144552 68.8058375"></polygon>
                        <polygon id="Fill-71" fill="#C4D5D7"
                                 points="6.31630826 37.6998766 9.03854579 36.9170906 11.7607833 59.2264931 9.09687946 58.943516"></polygon>
                        <polygon id="Fill-73" fill="#280911" points="42.4831783 70.5768909 46.0660318 69.1913596 45.983198 71.359677"></polygon>
                    </g>
                    <g id="Group-91">
                        <path d="M30.8921196,22.7894969 C32.093233,22.3283769 33.2865113,21.7976391 34.5099546,21.4002702 C36.3868412,20.790528 38.1140784,21.2770702 39.9819546,21.6161636 C40.7211918,21.7503147 41.0385113,20.6200036 40.2941814,20.4846791 C38.5986763,20.1768747 36.8158103,19.6578702 35.0948412,20.0129991 C33.5513361,20.3317547 32.0458309,21.0948124 30.579501,21.6580124 C29.8810062,21.9263147 30.1842227,23.0613191 30.8921196,22.7894969"
                              id="Fill-76" fill="#280911"></path>
                        <path d="M32.4007588,36.4993884 L22.6069443,36.4993884 C21.8508619,36.4993884 21.8492948,37.6727218 22.6069443,37.6727218 L32.4007588,37.6727218 C33.1568412,37.6727218 33.1584082,36.4993884 32.4007588,36.4993884"
                              id="Fill-78" fill="#280911"></path>
                        <path d="M28.6791093,40.4104996 L26.3285938,40.4104996 C25.5725113,40.4104996 25.5709443,41.5838329 26.3285938,41.5838329 L28.6791093,41.5838329 C29.4351918,41.5838329 29.4367588,40.4104996 28.6791093,40.4104996"
                              id="Fill-80" fill="#280911"></path>
                        <path d="M47.1894186,25.5482773 C46.4329443,25.5482773 46.4317691,26.7216107 47.1894186,26.7216107 C47.6861608,26.7216107 48.1801608,26.7466418 48.6400784,26.5194062 C49.3005732,26.1932196 49.7358103,25.5044729 49.7358103,24.7660551 C49.7358103,24.0573618 49.3307381,23.3768284 48.7027588,23.0451662 C48.2224701,22.790944 47.714367,22.8104996 47.1894186,22.8104996 C46.4329443,22.8104996 46.4317691,23.9838329 47.1894186,23.9838329 C47.7621608,23.9838329 48.5605526,23.970144 48.5605526,24.7660551 C48.5605526,25.5623573 47.7625526,25.5482773 47.1894186,25.5482773"
                              id="Fill-82" fill="#280911"></path>
                        <path d="M38.2374804,24.0048356 C37.2545732,23.8413511 36.1557072,23.4967822 35.1943464,23.8929778 C34.4402227,24.2039111 33.7593567,24.7874489 33.0835835,25.2372267 C32.4571711,25.6541511 33.0451918,26.6706489 33.6766969,26.2502044 C34.0367175,26.0108444 34.3928206,25.7550578 34.7548,25.5121778 C34.7544082,25.5243022 34.7512742,25.5360356 34.7512742,25.54816 C34.7512742,26.0882844 35.1896454,26.5259378 35.7306557,26.5259378 C36.271666,26.5259378 36.7100371,26.0882844 36.7100371,25.54816 C36.7100371,25.2970667 36.6124907,25.0702222 36.4561814,24.89696 C36.9466557,24.9212089 37.4504495,25.0573156 37.9248619,25.13632 C38.6648825,25.25952 38.9829856,24.1288178 38.2374804,24.0048356"
                              id="Fill-84" fill="#280911"></path>
                        <path d="M22.0656206,26.2502827 C22.696734,26.670336 23.2855381,25.6546204 22.658734,25.2373049 C21.9829608,24.7875271 21.3024866,24.2043804 20.5479711,23.893056 C19.5862186,23.4964693 18.4877443,23.8410382 17.5048371,24.0049138 C16.7605072,24.1285049 17.0762598,25.2595982 17.8174557,25.1360071 C18.291868,25.0573938 18.7956619,24.9212871 19.2861361,24.8970382 C19.1298268,25.0699093 19.0322804,25.2967538 19.0322804,25.5482382 C19.0322804,26.0883627 19.4706515,26.526016 20.0116619,26.526016 C20.5526722,26.526016 20.9910433,26.0883627 20.9910433,25.5482382 C20.9910433,25.5357227 20.9879093,25.5243804 20.9875175,25.512256 C21.3494969,25.755136 21.7056,26.0109227 22.0656206,26.2502827"
                              id="Fill-86" fill="#280911"></path>
                        <g id="Group-90">
                            <mask id="mask-4" fill="white">
                                <use xlink:href="#path-3"></use>
                            </mask>
                            <g id="Clip-89"></g>
                            <path d="M71.2424392,60.5175609 C69.7718,63.5846542 67.8808103,66.4514987 65.6262742,69.0003698 C64.8564804,69.8709831 64.0451608,70.7056142 63.1978,71.5015253 C65.2979856,68.818112 67.2692845,65.783872 67.3217794,62.4778098 C67.3911196,58.1431253 65.3524392,53.6269653 62.6407278,50.2997831 C62.623099,50.278272 62.6046866,50.2626276 62.5862742,50.2450276 C62.5839237,50.2426809 62.5827485,50.2399431 62.5803979,50.2372053 C62.3030371,49.9082809 60.5899031,49.2445653 59.9474289,48.9234631 C58.3243979,48.1126898 56.7017588,47.3019164 55.0783361,46.4911431 C52.7807072,45.343232 50.4055113,44.853952 47.9088722,44.2105742 C47.0003979,43.9762987 45.6664804,43.3524764 44.8579031,44.1315698 C44.1574495,43.6673209 43.5098825,43.0786987 43.016666,42.4106809 C45.1458412,40.8712676 46.8538825,39.0228764 47.6248515,36.4071253 C48.2767278,34.1942187 48.0843773,31.734912 48.0518619,29.4285298 C53.5845835,28.8563342 53.5861505,20.2761387 48.0448103,19.7113742 C48.0232639,15.8558009 47.7325835,12.2223787 45.7655938,8.78294756 C55.980934,11.0627342 64.9011402,17.5215431 70.0765835,26.6743253 C75.8995938,36.9711076 76.3599031,49.841792 71.2424392,60.5175609 L71.2424392,60.5175609 Z M61.8564392,51.1895609 L61.8572227,51.1895609 L61.8572227,51.189952 C61.8372433,51.1930809 61.8415526,51.1915164 61.8564392,51.1895609 L61.8564392,51.1895609 Z M61.0423773,72.2943076 C60.3090165,73.2263253 59.5576351,74.1442631 58.7917588,75.0500764 C58.7831402,75.0586809 58.7737381,75.0657209 58.7651196,75.0743253 C58.7310371,75.1095253 58.7020474,75.1451164 58.6785423,75.1818809 C57.7050371,76.3301831 56.7080268,77.4581476 55.6957381,78.5724231 C55.1323979,77.8707698 54.3296969,77.3369031 53.170501,77.0709476 C52.0594907,76.8163342 50.9668928,77.1280498 49.8840887,76.6810098 C48.4518412,76.0900409 47.8254289,74.9257031 47.5993876,73.4684231 C47.4281918,72.3600142 47.3627691,71.222272 47.2691402,70.0986098 C49.1687485,69.4884764 50.8775732,68.5423787 51.4268103,66.6572231 C51.679099,65.7924764 51.5564804,64.9332053 51.4405216,64.0622009 C51.3739237,63.5647076 51.2838206,63.0633031 51.2407278,62.5626809 C51.2328928,62.4723342 51.2195732,62.4132764 51.2046866,62.3718187 C51.2058619,62.3569564 51.2086041,62.3432676 51.2086041,62.3284053 C51.2086041,62.2978987 51.2093876,62.267392 51.2101711,62.2368853 C51.2630577,62.1903431 51.3418,62.1109476 51.4585423,61.9721031 C52.4183361,60.8273209 52.3274495,59.1103431 50.8983361,58.6108942 C50.7831608,57.075392 50.7882536,55.385792 50.3118825,53.9375076 C49.551099,51.6213476 47.1226247,50.186752 44.7403773,50.5360142 C44.7094289,50.538752 44.6796557,50.5438364 44.6502742,50.5508764 C44.5832845,50.5618276 44.5159031,50.5688676 44.4493052,50.5829476 C44.3772227,50.5978098 44.308666,50.6193209 44.2381505,50.637312 C44.5343155,49.5625387 44.8242124,48.4862009 45.0913876,47.4039964 C45.2296763,46.842752 45.2876557,45.1054364 45.9042742,44.9055787 C46.636068,44.6685653 48.6649546,45.6174009 49.4057588,45.8082631 C51.6732227,46.3929742 52.936233,46.7305031 54.9130165,47.7176676 C56.288068,48.4048498 57.6627278,49.0916409 59.0377794,49.7788231 C59.3598,49.9395698 60.0555526,50.4229831 60.7031196,50.7804587 C60.2204804,51.0198187 59.7170784,51.3534364 59.4095526,51.5247431 C57.2513876,52.7258453 55.4191608,54.3513031 53.8255113,56.2266809 C53.3389546,56.7992676 54.1663361,57.6331164 54.6564186,57.0562276 C56.6085216,54.7596231 58.8983155,52.9601209 61.6503773,51.7242098 C61.8027691,51.6557653 61.9629959,51.5888853 62.1157794,51.5188764 C64.2480887,54.2746453 65.8429134,57.8400142 66.1085216,61.2892231 C66.4387691,65.5793209 63.5593876,69.0942364 61.0423773,72.2943076 L61.0423773,72.2943076 Z M51.7594082,82.7745209 C49.856666,84.7535431 47.9727278,86.6598187 45.0130371,86.6559076 C43.7625629,86.653952 42.6582124,86.2718364 41.5428928,85.7786453 C37.7323155,84.0945209 33.9319237,82.3884942 30.1311402,80.6828587 C30.0715938,80.6374898 30.0002948,80.6038542 29.9164598,80.5866453 C28.5398412,79.9690809 27.1628309,79.3503431 25.7850371,78.7347342 C24.7049753,78.2521031 23.6249134,77.7686898 22.5444598,77.2860587 C22.3607278,77.2039253 21.2215113,76.8644409 21.1525629,76.6638009 C21.2567691,76.9673031 22.0794495,75.5726009 22.1581918,75.4341476 C22.6365216,74.5932587 23.0466866,73.710912 23.3922124,72.8078364 C23.8047278,71.7303253 24.1161711,70.6144853 24.3132227,69.4779164 C24.4139031,68.8975076 24.4832433,68.3096676 24.5251608,67.7218276 C24.5576763,67.2673564 24.4307485,66.3814898 24.4730577,66.3631076 C24.7653052,66.2371698 25.9683773,66.7612587 26.2567072,66.8406542 C27.0570577,67.0608498 27.8558412,67.2865209 28.6546247,67.5118009 C30.7552021,68.1051164 32.8538206,68.7058631 34.9536144,69.3015253 C38.7042536,70.3653476 42.4548928,71.4929209 46.2556763,72.3701831 C46.4464598,74.3433387 46.9059856,76.2707342 48.6814082,77.3936142 C50.697367,78.6686364 53.3518825,77.5868231 54.8973464,79.4446009 C53.8631196,80.5663076 52.8155732,81.6758898 51.7594082,82.7745209 L51.7594082,82.7745209 Z M19.2047691,83.7796764 C16.722233,84.7633209 13.9615526,84.4969742 12.165367,82.3227876 C10.1944598,79.9362276 10.5059031,76.037632 11.1640474,72.8246542 C11.1750165,72.8927076 11.1855938,72.9603698 11.1965629,73.0284231 C11.2329959,73.2572231 11.5299443,73.4852409 11.7630371,73.4594276 C12.6613258,73.3593031 13.5592227,73.2591787 14.4575113,73.1590542 C14.5613258,73.1594453 14.6580887,73.147712 14.752501,73.1258098 L17.024666,72.8727609 C17.1143773,72.862592 17.1927278,72.8359964 17.2608928,72.7984498 C18.5579856,73.4171876 19.8554701,74.0355342 21.1525629,74.6546631 C20.9265216,75.0841031 20.6942124,75.5147164 20.4560268,75.9523698 C19.4241505,77.8492587 21.8541918,78.2560142 23.2652845,78.8864853 C24.5318206,79.4528142 25.7983567,80.0183609 27.064501,80.5850809 C24.4479856,81.6575076 21.8330371,82.7373653 19.2047691,83.7796764 L19.2047691,83.7796764 Z M14.1398,72.0087964 C14.1112021,72.0146631 14.0833876,72.021312 14.0579237,72.0303076 C13.4561918,72.0971876 12.8544598,72.1644587 12.2523361,72.2313387 C12.1516557,71.5977387 12.0505835,70.9645298 11.9495113,70.3309298 C12.6060887,70.6473387 13.2799031,70.9281564 13.9090577,71.2093653 C13.986233,71.4761031 14.0630165,71.7420587 14.1398,72.0087964 L14.1398,72.0087964 Z M10.116501,67.5951076 C9.33769691,66.4217742 9.62054227,64.9257742 9.93316082,63.4379876 C10.0044598,63.0985031 10.2293258,62.5755876 10.1768309,62.2224142 C10.1125835,61.7918009 9.57901649,61.4972942 9.53474845,61.1104853 C9.41095464,60.0200676 10.1615526,59.7791431 10.9556351,59.9520142 C11.5898825,60.0896853 12.2233464,60.2324409 12.8568103,60.3716764 C13.5310165,60.5199076 14.4571196,60.9454364 15.1191814,60.6873031 C15.3652021,60.5910898 15.548934,60.3990542 15.550501,60.1213653 C15.5540268,59.4040676 14.7223361,58.870592 14.7231196,58.205312 C14.7246866,56.8020053 15.8078825,57.2400498 16.2627072,57.9616498 C16.986666,59.1087787 17.8160062,60.3685476 18.3221505,61.6322276 C18.780501,62.7770098 18.8921505,64.034432 19.6928928,65.0231609 C20.5500474,66.0815076 22.075532,66.7233209 23.2347278,67.4163698 C23.2182742,68.1195876 23.2386454,68.8486187 23.1222948,69.4697031 C22.838666,70.9801742 22.3148928,72.313472 21.6806454,73.6178276 C19.3990784,72.556352 17.0234907,71.5684053 14.7297794,70.4662542 C14.7278206,70.4658631 14.7254701,70.4646898 14.7235113,70.4635164 C13.5239649,69.8870187 12.3455732,69.2815787 11.2204598,68.6108231 C11.1581711,68.5740587 11.1052845,68.5337742 11.0476969,68.4954453 C10.7276351,68.2048498 10.4154082,67.906432 10.116501,67.5951076 L10.116501,67.5951076 Z M7.48314021,38.6478009 C8.04726392,38.4326898 8.75437732,38.1420942 9.28010928,37.9711787 C9.36511959,39.0889742 9.61466598,40.2302364 9.75060412,41.3308231 C10.0228722,43.5319964 10.2947485,45.7327787 10.5670165,47.933952 C11.022233,51.6182187 11.4778412,55.3028764 11.9318825,58.9875342 C11.7269959,58.9300409 11.5538412,58.8834987 11.4347485,58.8572942 C11.0731608,58.7775076 10.6970784,58.7031964 10.3319649,58.6773831 C9.3823567,52.0011164 8.43274845,45.3244587 7.48314021,38.6478009 L7.48314021,38.6478009 Z M8.45507835,61.6075876 C8.55810928,61.8199609 8.7586866,61.9850098 8.86093402,62.1981653 C8.89932577,62.2775609 8.92949072,62.3241031 8.95456289,62.3506987 C8.94633608,62.3929387 8.93810928,62.4418276 8.92988247,62.506752 C8.80099588,63.5244231 8.43901649,64.5068942 8.35988247,65.5167431 C6.62951134,63.2091876 5.28815052,60.5824853 4.1763567,57.9675164 C2.04992371,52.9655964 0.875057732,47.6457031 1.24173814,42.2014364 C1.90419175,32.3630364 6.60443918,23.2884764 13.9881918,16.8425742 C13.9858412,16.9008498 13.9799649,16.9591253 13.9780062,17.017792 C13.9697794,17.0561209 13.9646866,17.0964053 13.9646866,17.1394276 L13.9646866,17.3349831 C13.9646866,17.464832 14.0011196,17.5708231 14.0579237,17.6560853 C14.4187278,19.4563698 14.779532,21.2570453 15.1399443,23.0573298 L15.1399443,34.9122987 C15.1399443,35.2756409 15.1372021,35.6393742 15.134068,36.0031076 C14.5867897,36.0688142 14.0391196,36.1333476 13.4910577,36.1963164 C13.3935113,36.1830187 13.2912639,36.1955342 13.1937175,36.2303431 C12.084666,36.3582364 10.9767897,36.4919964 9.8755732,36.6570453 C8.87582062,36.6640853 7.62652165,37.3794276 6.68278969,37.6938809 C6.35215052,37.803392 6.22561443,38.0857742 6.27223299,38.4154809 C7.24064536,45.223552 8.20905773,52.0316231 9.1774701,58.8400853 C8.82136701,59.0004409 8.51658351,59.2879076 8.30464536,59.7760142 C8.02454227,60.4201742 8.16322268,61.0087964 8.45507835,61.6075876 L8.45507835,61.6075876 Z M28.1308515,55.9990542 C28.1868722,55.9720676 28.2401505,55.9360853 28.2875526,55.8828942 C28.5049753,55.6400142 28.8027072,55.3564587 29.1231608,55.0451342 L30.0171402,57.5384676 C29.7899237,60.2817209 29.5627072,63.0249742 29.335099,65.7686187 C29.2598825,65.1604409 29.184666,64.5522631 29.1094495,63.9444764 C29.0502948,63.4661476 29.0072021,62.981952 28.9312021,62.5059698 C28.9253258,62.4684231 28.9178825,62.4445653 28.9096557,62.4281387 C28.923367,62.3330987 28.9069134,62.2388409 28.8720474,62.1516231 C28.6644186,60.542592 28.4916557,58.9167431 28.2922536,57.3038009 C28.2385835,56.8692764 28.1845216,56.4343609 28.1308515,55.9990542 L28.1308515,55.9990542 Z M27.4233464,63.0073742 C27.550666,62.9956409 27.7187278,62.9944676 27.8950165,62.9858631 C27.8848309,63.2537742 27.8820887,63.524032 27.9122536,63.7661298 C28.0105835,64.5604764 28.1089134,65.3552142 28.2072433,66.1495609 C27.2168928,65.8351076 26.1893258,65.4729387 25.1809546,65.2871609 C25.077532,64.5776853 24.9835113,63.9053653 24.8938,63.2463431 C25.7368515,63.1661653 26.5799031,63.0867698 27.4233464,63.0073742 L27.4233464,63.0073742 Z M27.3904392,50.0103609 C27.6458619,50.1898809 27.9016763,50.3694009 28.157099,50.5489209 C28.5696144,50.8387342 29.5176557,51.2552676 29.7820887,51.6901831 C30.210666,52.393792 28.8054495,53.741952 27.9529959,54.5601564 C27.7653464,53.0438187 27.5780887,51.5270898 27.3904392,50.0103609 L27.3904392,50.0103609 Z M27.3571402,59.243712 C27.4151196,59.7146098 27.4734907,60.1851164 27.5314701,60.6560142 C27.5753464,61.0099698 27.5588928,61.4527076 27.6654495,61.7968853 C27.3661505,61.8078364 27.0472639,61.869632 26.7612845,61.8966187 C26.0866866,61.9599787 25.4124804,62.0241209 24.7378825,62.0874809 C24.6305423,61.2806187 24.5224186,60.4624142 24.4033258,59.5831964 C25.3881918,59.4748587 26.3730577,59.363392 27.3571402,59.243712 L27.3571402,59.243712 Z M23.9473258,55.5766542 C24.8448309,55.4683164 25.7427278,55.3588053 26.640233,55.2481209 C26.722501,55.311872 26.8043773,55.3760142 26.8862536,55.4397653 C26.9634289,56.0608498 27.0402124,56.6823253 27.1169959,57.3038009 C27.1491196,57.5650631 27.1816351,57.8259342 27.2137588,58.0871964 C26.2418206,58.2045298 25.2694907,58.314432 24.2967691,58.4215964 C24.1808103,57.473152 24.064068,56.5247076 23.9473258,55.5766542 L23.9473258,55.5766542 Z M23.7334289,63.355072 C23.8188309,63.9835876 23.9050165,64.6058453 23.9908103,65.2038542 C23.8619237,65.2390542 23.7373464,65.3067164 23.6139443,65.4271787 C23.4576351,65.579712 23.4360887,65.8222009 23.3847691,66.0189298 C23.3757588,66.0529564 23.3714495,66.0905031 23.3636144,66.125312 C22.6392639,65.6954809 21.9556557,65.2883342 21.3707691,64.7908409 C21.3194495,64.3907342 21.2696969,63.9910187 21.2187691,63.5913031 C22.0567278,63.5126898 22.8950784,63.4340764 23.7334289,63.355072 L23.7334289,63.355072 Z M23.2445216,59.7103076 C23.3483361,60.475712 23.4607691,61.324032 23.5775113,62.1966009 C23.5739856,62.196992 23.5708515,62.1973831 23.5673258,62.1977742 C22.7352433,62.2759964 21.9031608,62.3538276 21.0714701,62.4320498 C20.9672639,61.6154098 20.8638412,60.7987698 20.7604186,59.9821298 C21.5881918,59.8902187 22.4163567,59.8002631 23.2445216,59.7103076 L23.2445216,59.7103076 Z M26.3969546,51.482112 C26.5031196,52.3402098 26.6092845,53.1979164 26.7154495,54.0560142 C26.678233,54.0603164 26.6414082,54.0685298 26.6061505,54.0790898 C25.6722124,54.1940764 24.7382742,54.3078898 23.8039443,54.4201387 C23.6966041,53.5604764 23.5869134,52.7012053 23.4748722,51.8415431 C24.4487691,51.7218631 25.4230577,51.6021831 26.3969546,51.482112 L26.3969546,51.482112 Z M23.3220887,50.6869831 C23.2468722,50.1280853 23.1704804,49.5691876 23.0917381,49.0102898 C23.5763361,49.1241031 24.0914907,49.1945031 24.6485629,49.2105387 C25.1378619,49.2246187 25.6283361,49.2347876 26.1199856,49.2418276 C26.1650371,49.6036053 26.2093052,49.964992 26.2543567,50.3263787 C25.276934,50.4468409 24.2995113,50.566912 23.3220887,50.6869831 L23.3220887,50.6869831 Z M22.7893052,55.7151076 C22.9052639,56.6549476 23.0208309,57.5990898 23.1371814,58.5490987 C22.2956969,58.6398364 21.4546041,58.7313564 20.6135113,58.8252231 C20.4944186,57.8865564 20.3741505,56.9482809 20.2558412,56.0100053 C21.1008515,55.913792 21.9454701,55.8160142 22.7893052,55.7151076 L22.7893052,55.7151076 Z M19.7916144,52.2948409 C20.6338825,52.1911964 21.4761505,52.0871609 22.3184186,51.9839076 C22.4296763,52.8384853 22.5389753,53.6969742 22.6463155,54.5589831 C21.8013052,54.6591076 20.9559031,54.7568853 20.110501,54.8530987 C20.0031608,54.0004764 19.8981711,53.1474631 19.7916144,52.2948409 L19.7916144,52.2948409 Z M19.6020062,60.1158898 C19.7046454,60.9243164 19.8068928,61.732352 19.9099237,62.5411698 C19.8879856,62.5431253 19.8656557,62.545472 19.8437175,62.5470364 C19.8390165,62.5317831 19.8327485,62.5177031 19.8276557,62.5020587 C19.5687072,61.6803342 19.2408103,60.9309653 18.8698206,60.2003698 C19.1138825,60.1714276 19.3579443,60.1440498 19.6020062,60.1158898 L19.6020062,60.1158898 Z M19.151099,47.1568142 C19.1330784,47.0093653 19.1142742,46.8619164 19.0962536,46.7144676 C19.2404186,46.8450987 19.3849753,46.972992 19.5307072,47.096192 C19.4045629,47.1161387 19.2780268,47.1364764 19.151099,47.1568142 L19.151099,47.1568142 Z M21.8914082,48.8346809 C21.9862124,49.4972231 22.0759237,50.1628942 22.1652433,50.8293476 C21.3261093,50.9326009 20.4865835,51.0358542 19.6474495,51.1391076 C19.5299237,50.1949653 19.4116144,49.2508231 19.2944804,48.307072 C19.8159031,48.2229831 20.3326247,48.1424142 20.8403361,48.0802276 C20.8485629,48.0790542 20.8560062,48.0759253 20.864233,48.074752 C21.1964392,48.2796942 21.5392227,48.4631253 21.8988515,48.6176142 C21.885532,48.6852764 21.8804392,48.7572409 21.8914082,48.8346809 L21.8914082,48.8346809 Z M19.0974289,56.1418098 C19.2157381,57.0812587 19.3360062,58.0203164 19.455099,58.9593742 C19.0798,59.0027876 18.7041093,59.0442453 18.3292021,59.0900053 C18.3103979,59.0919609 18.2947278,59.0978276 18.277099,59.1013476 C18.0745629,58.7423076 17.8645835,58.381312 17.6502948,58.0121031 C17.3455113,57.4864498 17.0070371,56.867712 16.5698412,56.4112853 C17.4128928,56.3244587 18.2555526,56.2352853 19.0974289,56.1418098 L19.0974289,56.1418098 Z M18.6339856,52.4372053 C18.7401505,53.2863076 18.8447485,54.1358009 18.9516969,54.9849031 C18.0487072,55.0842453 17.1453258,55.1808498 16.2411608,55.2727609 C16.234501,55.2735431 16.2290165,55.2758898 16.2227485,55.276672 C16.1440062,54.4408676 16.0625216,53.6031076 15.9786866,52.7637831 C16.8636557,52.6546631 17.7490165,52.5459342 18.6339856,52.4372053 L18.6339856,52.4372053 Z M18.1423361,48.4912853 C18.2579031,49.4213476 18.3738619,50.3514098 18.4902124,51.281472 C17.6142536,51.3890276 16.7386866,51.4969742 15.8627278,51.6045298 C15.7655732,50.6599964 15.6637175,49.7138987 15.5579443,48.7678009 C16.4068722,48.7372942 17.2749959,48.6262187 18.1423361,48.4912853 L18.1423361,48.4912853 Z M17.1312227,44.7417031 C17.3376763,44.973632 17.555099,45.2043876 17.7819237,45.4367076 C17.7756557,45.4836409 17.7736969,45.533312 17.7807485,45.5888498 C17.8524392,46.1727787 17.9264804,46.7567076 17.9989546,47.3406364 C17.1331814,47.4724409 16.2681918,47.5772587 15.4239649,47.5983787 C15.3232845,46.7285476 15.2186866,45.8591076 15.1097794,44.9904498 C15.7835938,44.9075342 16.4574082,44.8246187 17.1312227,44.7417031 L17.1312227,44.7417031 Z M14.9644392,43.8351076 C14.8398619,42.8772764 14.708233,41.9225742 14.5719031,40.9698276 L15.199099,40.8912142 C15.3409134,41.9765476 15.7287485,42.8628053 16.2830784,43.6727964 C15.843532,43.7267698 15.4039856,43.7807431 14.9644392,43.8351076 L14.9644392,43.8351076 Z M15.1328928,39.7260942 C14.8896144,39.7566009 14.6463361,39.7871076 14.4030577,39.8176142 C14.2780887,38.979072 14.1480268,38.1436587 14.0124804,37.3113742 C14.3936557,37.2663964 14.7677794,37.2222009 15.124666,37.1795698 C15.1172227,38.028672 15.1164392,38.8781653 15.1328928,39.7260942 L15.1328928,39.7260942 Z M10.7664186,40.2658276 C10.6308722,39.4292409 10.4835732,38.5828764 10.4381299,37.7509831 C11.1264392,37.6539876 11.9745835,37.5507342 12.850934,37.4474809 C12.9860887,38.275072 13.1165423,39.1140053 13.2426866,39.9627164 C12.4176557,40.0659698 11.592233,40.1672676 10.7664186,40.2658276 L10.7664186,40.2658276 Z M13.4111402,41.1149298 C13.5462948,42.0618098 13.677532,43.0153387 13.802501,43.9778631 C12.9653258,44.0811164 12.1285423,44.1843698 11.291367,44.287232 C11.1730577,43.3309653 11.0547485,42.3746987 10.9368309,41.418432 C11.7614701,41.3190898 12.586501,41.2185742 13.4111402,41.1149298 L13.4111402,41.1149298 Z M14.2326454,59.5558187 C13.9227691,59.5116231 13.5388515,59.4236231 13.148666,59.3227164 C12.6809134,55.5262009 12.2112021,51.7300764 11.7422742,47.933952 C11.6392433,47.1036231 11.5369959,46.2732942 11.4343567,45.4429653 C12.2719237,45.3401031 13.1094907,45.2364587 13.9474495,45.1335964 C14.3905216,48.680192 14.7681711,52.281152 15.0937175,55.7698631 C14.9601299,55.780032 14.8218412,55.8003698 14.674934,55.8441742 C13.9063155,56.0725831 13.3339649,56.7777564 13.3343567,57.599872 C13.3343567,58.3046542 13.948233,58.933952 14.2326454,59.5558187 L14.2326454,59.5558187 Z M44.0528515,46.2357476 C41.0947278,47.7106276 38.0688309,49.0935964 35.1632021,50.6674276 C34.8306041,50.8481209 34.5818412,51.049152 34.3973258,51.2646542 C34.3945835,51.2646542 34.3926247,51.263872 34.3898825,51.263872 L30.8895732,51.263872 C30.5534495,50.6897209 29.8819856,50.3302898 29.3546866,49.9602987 C29.0169959,49.7228942 28.6793052,49.4858809 28.3416144,49.2488676 C29.1619443,49.2437831 29.981099,49.2324409 30.7955526,49.2105387 C33.1057175,49.1487431 34.7224804,48.1248142 36.5319856,46.8799076 C38.3736144,45.6127076 40.2152433,44.3458987 42.0564804,43.0786987 C42.674666,43.9113742 43.4671814,44.6407964 44.3419649,45.1996942 C44.2604804,45.5356587 44.2075938,45.8837476 44.1547072,46.1970276 C44.1214082,46.2075876 44.0873258,46.2189298 44.0528515,46.2357476 L44.0528515,46.2357476 Z M41.6071402,55.5332409 C41.6702124,54.1964231 42.1132845,52.9890631 43.518501,52.1747698 C43.7907691,52.017152 44.0646041,51.9049031 44.3376557,51.8172942 C44.4477381,52.9581653 44.5574289,54.0986453 44.6675113,55.2395164 C43.6473876,55.3372942 42.6268722,55.4354631 41.6071402,55.5332409 L41.6071402,55.5332409 Z M41.6322124,56.7042276 C42.2045629,56.6490809 42.7773052,56.5943253 43.3500474,56.5391787 C42.7957175,57.1485298 42.2813464,57.8896853 41.8539443,58.5897742 C41.7712845,57.9663431 41.6803979,57.3300053 41.6322124,56.7042276 L41.6322124,56.7042276 Z M31.1532227,58.0105387 L33.6075526,58.0105387 C33.8465216,60.5582364 34.085099,63.1055431 34.3244598,65.6532409 L31.2887691,66.8473031 C31.2045423,66.8801564 31.1355938,66.9263076 31.0795732,66.9802809 C30.861367,66.9184853 30.6435526,66.8566898 30.4257381,66.7948942 C30.668233,63.8666453 30.9107278,60.9383964 31.1532227,58.0105387 L31.1532227,58.0105387 Z M33.9287897,56.8372053 L31.0110165,56.8372053 C30.6846866,55.9274809 30.3583567,55.0177564 30.0324186,54.108032 C30.5033052,53.576512 30.9021093,53.0066631 31.0431402,52.4372053 L33.9852021,52.4372053 C34.0040062,53.0927076 34.3389546,53.8057031 34.7906454,54.5089209 L33.9287897,56.8372053 Z M36.8089546,51.1563164 C39.1414495,49.9935431 41.4739443,48.8303787 43.8060474,47.6679964 C43.5051814,48.852672 43.1906041,50.0338276 42.8607485,51.211072 C41.6087072,51.9721742 40.7766247,53.2444587 40.5063155,54.6997831 C39.5841299,55.2852764 38.5702742,55.7671253 37.5924598,56.2704853 C37.0099237,55.3940053 36.4336557,54.5124409 35.8084186,53.6668587 C34.6770371,52.1380053 35.4570165,51.8302009 36.8089546,51.1563164 L36.8089546,51.1563164 Z M35.6141093,55.6583964 C36.0881299,56.272832 36.564501,56.8477653 36.8880887,57.328832 C37.0698619,57.5983076 37.3977588,57.6980409 37.6919649,57.5392498 C38.5812433,57.0593564 39.5292845,56.6252231 40.4213052,56.1246009 C40.5074907,57.5631076 40.8310784,59.0133476 40.8443979,60.4542009 C40.8279443,60.4890098 40.811099,60.524992 40.7966041,60.556672 C40.2508928,61.753472 40.0248515,63.126272 38.798666,63.8639076 C38.1354289,64.2624498 37.3084392,64.4799076 36.593099,64.7611164 C36.214666,64.9097387 35.836233,65.058752 35.4578,65.2077653 C35.2262742,62.7406364 34.9951402,60.2731164 34.7636144,57.8059876 C34.8208103,57.7398898 34.8705629,57.6659698 34.9026866,57.5795342 C35.1396969,56.9396764 35.3767072,56.2990364 35.6141093,55.6583964 L35.6141093,55.6583964 Z M46.1608722,71.1432676 C45.6594289,71.0247609 45.1587691,70.9031253 44.6592845,70.7771876 C45.1340887,70.6688498 45.6241711,70.5546453 46.1150371,70.4283164 C46.1303155,70.6641564 46.1459856,70.9023431 46.1608722,71.1432676 L46.1608722,71.1432676 Z M45.5579649,58.1055787 C45.3464186,58.6738631 44.848501,58.9965298 44.8061918,59.6191787 C44.7928722,59.8088676 44.9237175,60.0435342 45.0972639,60.1260587 C46.0617588,60.5852231 47.8834082,59.9633564 48.9270371,59.813952 C49.1472021,59.782272 49.9017175,59.5421298 50.1367691,59.6402987 C50.545367,59.8112142 50.7294907,60.8460942 50.6276351,61.1425564 C50.5590784,61.3404587 50.3071814,61.468352 50.2139443,61.6572587 C50.2104186,61.6642987 50.2092433,61.6709476 50.2057175,61.6779876 C50.1026866,61.7808498 50.0376557,61.9208676 50.0372639,62.0820053 C50.0372639,62.1641387 50.0333464,62.246272 50.0333464,62.3284053 C50.0333464,62.3733831 50.0411814,62.4175787 50.0517588,62.4613831 C50.0642948,62.7371164 50.1269753,63.0226276 50.1724186,63.3660231 C50.2997381,64.3215076 50.5692639,65.3974542 50.2934701,66.3451164 C49.8746866,67.786752 48.721367,68.325312 47.4411196,68.6902187 C45.8059443,69.1564231 44.1707691,69.6230187 42.5359856,70.0896142 C42.4650784,70.1095609 42.4074907,70.1404587 42.3557794,70.1760498 C39.9841093,69.5338453 37.625367,68.839232 35.266233,68.1700409 C34.4627485,67.941632 33.6588722,67.7136142 32.8557794,67.4848142 L36.5801711,66.0204942 C38.2956557,65.3462187 40.1126041,64.8780587 41.0249959,63.1133653 C41.7877381,61.6388764 42.3013258,60.2214898 43.2517175,58.8361742 C43.5980268,58.3316409 44.1319856,57.0730453 44.7188309,56.7863609 C46.1209134,56.1007431 45.7565835,57.5689742 45.5579649,58.1055787 L45.5579649,58.1055787 Z M45.8318,55.1276587 L45.4952845,51.6338631 C47.2515113,51.6573298 48.7899237,52.9871076 49.2831402,54.7963876 C48.1329546,54.9066809 46.9823773,55.0173653 45.8318,55.1276587 L45.8318,55.1276587 Z M46.9729753,56.1910898 C47.8070165,56.1113031 48.6414495,56.0311253 49.4754907,55.9509476 C49.5730371,56.7863609 49.636501,57.6284231 49.7074082,58.4669653 C48.6320474,58.4990364 47.4701093,58.8377387 46.436666,58.9922276 C46.6160887,58.6918542 46.8421299,58.2565476 46.9028515,58.1177031 C47.1868722,57.4680676 47.3149753,56.8023964 46.9729753,56.1910898 L46.9729753,56.1910898 Z M34.1387691,1.64516978 C38.1342536,2.49466311 41.6690371,4.86792533 43.9925216,8.18376533 C44.0191608,8.25846756 44.0630371,8.32534756 44.1268928,8.379712 C44.4301093,8.82596978 44.7137381,9.28748089 44.9715113,9.76541867 C46.7712227,13.103552 46.8719031,16.5914809 46.8719031,20.2683164 C46.8719031,20.5855076 47.1414289,20.8549831 47.459532,20.8549831 C52.247532,20.8549831 52.2561505,28.2860942 47.459532,28.2860942 C47.1418206,28.2860942 46.8719031,28.5547876 46.8719031,28.8727609 C46.8719031,30.5862187 46.9651402,32.3258809 46.8554495,34.0366009 C46.6493876,37.2515342 44.8473258,39.7092764 42.2821299,41.5021298 C40.5494082,42.7134009 38.7990577,43.8988587 37.0573258,45.0972231 C35.3363567,46.2815076 33.6404598,47.7524764 31.4936557,47.9808853 C29.6054082,48.1819164 27.6493876,48.0372053 25.7529134,48.0372053 C24.8228928,48.0372053 23.8846454,48.0849209 22.9765629,47.8322631 C21.4244392,47.4008676 20.3643567,46.3612942 19.268233,45.2665742 C17.6859443,43.6868764 16.3868928,42.3551431 16.3152021,39.9642809 C16.2650577,38.2836764 16.3152021,36.5936853 16.3152021,34.9122987 L16.3152021,23.0060942 C16.3152021,22.9482098 16.3065835,22.8969742 16.2940474,22.8480853 C16.2062948,22.4108231 16.118934,21.9735609 16.0311814,21.5362987 C16.793532,21.3880676 17.5578412,21.2222364 18.3252845,21.1240676 C19.8143361,20.9332053 21.0268103,21.3778987 22.3709134,21.8937742 C23.2848722,22.244992 24.1016763,22.2316942 23.9163773,23.2583609 C23.7146247,24.3761564 23.2045629,25.5088142 22.8617794,26.5925831 C22.2580887,28.5012053 21.9039443,30.6394098 24.0233258,31.7865387 C25.5519443,32.6137387 27.8879649,32.1972053 29.5607485,32.1972053 C30.3168309,32.1972053 30.3180062,31.023872 29.5607485,31.023872 C27.3704598,31.023872 23.1070165,31.8322987 23.5822124,28.2094364 C23.8117794,26.4588231 24.9768515,24.8302364 25.2048515,23.0796231 C25.4449959,21.2355342 23.0071196,20.8596764 21.6708515,20.3735253 C19.654501,19.6405831 17.8050371,20.0156587 15.8016144,20.3919076 L15.1485629,17.1316053 C15.4184804,7.28264533 24.1933464,-0.469568 34.1387691,1.64516978 L34.1387691,1.64516978 Z M61.7165835,15.0876587 C56.818501,11.1769387 51.0334907,8.56666311 44.8790577,7.40310756 C42.1904598,3.627712 38.0124186,1.01391644 33.4018825,0.325952 C23.680934,-1.12546133 15.3804804,5.89850311 14.1315732,15.1881742 C5.94903711,21.8667876 0.768892784,31.643392 0.0664804124,42.2014364 C-0.304509278,47.7786809 0.902872165,53.2225564 3.06808866,58.3511964 C4.56575876,61.8985742 6.48495464,65.4889742 9.18021237,68.3159253 C9.45600619,68.6726187 9.7854701,68.9862898 10.152934,69.2667164 C10.2602742,69.3652764 10.3656557,69.4661831 10.4757381,69.5620053 C10.5415526,69.6198898 10.6112845,69.6582187 10.6818,69.6828587 C10.6782742,69.7309653 10.6790577,69.7806364 10.6872845,69.8330453 L10.7041299,69.937472 C10.6504598,69.9992676 10.6069753,70.0767076 10.5815113,70.1744853 C9.66990309,73.6534187 8.72538763,78.4421831 10.4393052,81.8127787 C11.7896763,84.4695964 14.8308515,85.9929742 17.7689959,85.457152 C19.7297175,85.0996764 21.659099,84.0393742 23.4889753,83.2946987 C25.0606866,82.6556231 26.6327897,82.0177209 28.2037175,81.3766898 C28.4454289,81.4420053 28.687532,81.5073209 28.9308103,81.5663787 C29.151367,81.620352 29.3985629,81.7044409 29.6343979,81.7337742 C33.4054082,83.4210276 37.1760268,85.1094542 40.9493876,86.7920142 C44.1441299,88.2160498 47.6565835,88.2094009 50.4192227,85.8009387 C52.217367,84.2329742 53.9246247,82.479232 55.5648928,80.6562631 C56.0001299,81.9262009 55.908068,83.5078542 56.0040474,84.8016498 C56.0592845,85.5502364 57.234934,85.5564942 57.1793052,84.8016498 C57.0539443,83.1132231 57.0014495,81.2425387 56.3777794,79.7430187 C57.5158206,78.4449209 58.6229134,77.1221831 59.700233,75.8076587 C60.6063567,74.9436942 61.8321505,74.2678542 62.7868515,73.4473031 C64.0185216,72.3885653 65.1808515,71.2512142 66.2660062,70.043072 C68.2823567,67.7980942 70.042501,65.3145387 71.4708309,62.6561564 C74.4277794,57.152832 75.9791196,50.9568498 75.9834289,44.7127609 C75.9908722,33.2704142 70.6638206,22.2320853 61.7165835,15.0876587 L61.7165835,15.0876587 Z"
                                  id="Fill-88" fill="#280911" mask="url(#mask-4)"></path>
                        </g>
                    </g>
                </g>
            </g>
        </g>
    </g>
</svg>